<svg width="120" height="36" viewBox="0 0 120 36" fill="none" xmlns="http://www.w3.org/2000/svg">
<rect width="120" height="36" rx="8" fill="black"/>
<rect x="0.5" y="0.5" width="119" height="35" rx="7.5" stroke="white" stroke-opacity="0.3"/>
<path d="M28.4403 7.2002C28.5741 8.3638 28.0923 9.51044 27.3882 10.3533C26.6535 11.183 25.4781 11.8176 24.3333 11.7359C24.1835 10.6162 24.7635 9.42562 25.4129 8.69923C26.1468 7.87492 27.4212 7.24338 28.4403 7.2002Z" fill="white"/>
<path d="M32.1879 13.9126C32.0602 13.9856 29.943 15.1951 29.9662 17.6618C29.9928 20.6406 32.6883 21.6253 32.7214 21.6361C32.7053 21.7055 32.2992 23.0573 31.2882 24.4299C30.4439 25.6382 29.5593 26.8195 28.1543 26.8411C27.4864 26.8558 27.0354 26.672 26.5654 26.4804C26.0752 26.2806 25.5643 26.0723 24.7651 26.0723C23.9179 26.0723 23.3843 26.2872 22.8698 26.4945C22.4249 26.6737 21.9942 26.8472 21.3872 26.8712C20.0491 26.9182 19.0268 25.5811 18.1519 24.3836C16.4029 21.9384 15.0414 17.493 16.8669 14.4679C17.7515 12.9843 19.3643 12.0289 21.0883 12.0034C21.8475 11.9886 22.5756 12.2686 23.2139 12.5141C23.7021 12.7019 24.1377 12.8694 24.4945 12.8694C24.8078 12.8694 25.2312 12.7086 25.7246 12.5211C26.5023 12.2257 27.454 11.8641 28.4234 11.9618C29.0864 11.9803 30.9732 12.2124 32.1905 13.9112L32.1879 13.9126Z" fill="white"/>
<path fill-rule="evenodd" clip-rule="evenodd" d="M75.2413 26.0251C75.8738 25.503 76.1889 24.8266 76.1889 23.9953C76.1889 23.3197 75.9733 22.7535 75.5411 22.3011C75.1074 21.8473 74.4331 21.4515 73.5151 21.1129C72.7647 20.842 72.2476 20.5908 71.963 20.3587C71.6359 20.1076 71.4731 19.7881 71.4731 19.4019C71.4731 19.053 71.6158 18.7586 71.9005 18.5169C72.2372 18.2467 72.707 18.1108 73.3083 18.1108C74.0691 18.1108 74.749 18.2607 75.3503 18.5603L75.7776 17.2839C75.1338 16.9748 74.3273 16.8198 73.3564 16.8198C72.2677 16.8198 71.397 17.0761 70.7444 17.5894C70.0894 18.102 69.7622 18.7608 69.7622 19.5642C69.7622 20.7935 70.6955 21.7283 72.5635 22.3665C73.2498 22.5993 73.7412 22.8512 74.0355 23.1222C74.3313 23.3932 74.4788 23.7273 74.4788 24.1239C74.4788 24.5689 74.3 24.9258 73.9417 25.1916C73.5817 25.4575 73.0806 25.5911 72.4368 25.5911C71.5397 25.5911 70.7163 25.3826 69.9659 24.9669L69.5698 26.2719C70.2665 26.678 71.1869 26.8807 72.335 26.8807C73.5785 26.8807 74.5462 26.5957 75.2413 26.0251ZM48.6141 26.7361H46.7934L45.7961 23.8655H42.3294L41.3793 26.7361H39.6067L43.0413 16.9632H45.1627L48.6141 26.7361ZM45.4953 22.6601L44.5933 20.1082C44.4979 19.8475 44.3191 19.2336 44.0554 18.2671H44.0233C43.9183 18.6828 43.7491 19.2967 43.5166 20.1082L42.6307 22.6601H45.4953ZM57.4466 23.1255C57.4466 24.324 57.093 25.2713 56.3859 25.9667C55.7525 26.5858 54.966 26.895 54.0272 26.895C53.0138 26.895 52.2858 26.5616 51.8425 25.8948H51.8104V29.607H50.1011V22.0085C50.1011 21.255 50.0795 20.4818 50.0378 19.6886H51.541L51.6364 20.8056H51.6685C52.2385 19.964 53.1036 19.544 54.2645 19.544C55.1721 19.544 55.9297 19.8722 56.5358 20.5295C57.1435 21.1875 57.4466 22.0526 57.4466 23.1255ZM55.7052 23.1819C55.7052 22.496 55.5368 21.9305 55.1985 21.4855C54.8289 21.0214 54.3326 20.7893 53.7105 20.7893C53.2888 20.7893 52.9055 20.9186 52.5632 21.1734C52.2201 21.4304 51.9956 21.766 51.8905 22.1817C51.8376 22.3756 51.8112 22.5342 51.8112 22.659V23.834C51.8112 24.3466 51.9827 24.7791 52.3259 25.1324C52.669 25.4856 53.1148 25.6619 53.6632 25.6619C54.307 25.6619 54.808 25.4342 55.1664 24.9804C55.5256 24.5258 55.7052 23.9265 55.7052 23.1819ZM65.2341 25.9667C65.942 25.2713 66.2956 24.324 66.2956 23.1255C66.2956 22.0526 65.9917 21.1875 65.3864 20.5295C64.7787 19.8722 64.0211 19.544 63.1143 19.544C61.9526 19.544 61.0876 19.964 60.5183 20.8056H60.4863L60.3909 19.6886H58.8876C58.9293 20.4818 58.9509 21.255 58.9509 22.0085V29.607H60.6602V25.8948H60.6923C61.1349 26.5616 61.8628 26.895 62.8762 26.895C63.815 26.895 64.6015 26.5858 65.2341 25.9667ZM64.0467 21.4855C64.385 21.9305 64.5542 22.496 64.5542 23.1819C64.5542 23.9265 64.3746 24.5258 64.0154 24.9804C63.657 25.4342 63.1559 25.6619 62.5122 25.6619C61.9622 25.6619 61.5164 25.4849 61.1733 25.1324C60.8317 24.7791 60.6602 24.3466 60.6602 23.834V22.659C60.6602 22.5342 60.6874 22.3756 60.7395 22.1817C60.8446 21.766 61.0682 21.4304 61.4114 21.1734C61.7545 20.9186 62.1369 20.7893 62.5595 20.7893C63.1824 20.7893 63.6771 21.0214 64.0467 21.4855ZM81.8403 20.864H79.9562V24.2854C79.9562 25.1556 80.2881 25.5904 80.9536 25.5904C81.259 25.5904 81.5124 25.5661 81.7128 25.5177L81.7601 26.7066C81.4234 26.8219 80.98 26.8799 80.4308 26.8799C79.7558 26.8799 79.2282 26.6912 78.8474 26.3145C78.4682 25.937 78.2774 25.304 78.2774 24.4146V20.8625H77.155V19.6875H78.2774V18.3972L79.9562 17.9331V19.6875H81.8403V20.864ZM90.3412 23.1548C90.3412 24.238 90.0029 25.1273 89.3278 25.8228C88.6199 26.5388 87.6803 26.8957 86.5089 26.8957C85.3801 26.8957 84.4814 26.5527 83.8111 25.8668C83.1409 25.1809 82.8058 24.3151 82.8058 23.2716C82.8058 22.1796 83.1505 21.2851 83.8424 20.5897C84.5327 19.8935 85.4643 19.5454 86.6356 19.5454C87.7645 19.5454 88.6728 19.8884 89.3583 20.575C90.0141 21.2411 90.3412 22.101 90.3412 23.1548ZM88.5677 23.2051C88.5677 22.5552 88.4162 21.9978 88.1091 21.533C87.7508 20.9704 87.2385 20.6899 86.5746 20.6899C85.8875 20.6899 85.3656 20.9712 85.0072 21.533C84.7002 21.9986 84.5487 22.5647 84.5487 23.2345C84.5487 23.8844 84.7002 24.4418 85.0072 24.9059C85.3768 25.4684 85.8932 25.749 86.5594 25.749C87.212 25.749 87.7243 25.4626 88.0939 24.8912C88.409 24.4176 88.5677 23.8543 88.5677 23.2051ZM95.8968 21.0656C95.7277 21.0369 95.5473 21.0222 95.3581 21.0222C94.7568 21.0222 94.2918 21.2301 93.9647 21.6465C93.68 22.0136 93.5373 22.4778 93.5373 23.0381V26.7356H91.8288L91.8449 21.9079C91.8449 21.0957 91.8232 20.3562 91.7807 19.6894H93.2696L93.3321 21.0377H93.3794C93.5598 20.5743 93.8444 20.2012 94.234 19.9214C94.6149 19.6695 95.0261 19.544 95.4695 19.544C95.6274 19.544 95.7702 19.5542 95.8968 19.5726V21.0656ZM103.541 22.8785C103.541 23.159 103.521 23.3955 103.479 23.5886H98.351C98.371 24.2848 98.6187 24.8172 99.095 25.1844C99.5271 25.5127 100.086 25.6772 100.772 25.6772C101.531 25.6772 102.224 25.5663 102.847 25.3438L103.115 26.4306C102.387 26.7214 101.527 26.8661 100.536 26.8661C99.3427 26.8661 98.4063 26.5445 97.7248 25.9019C97.0449 25.2593 96.7042 24.3964 96.7042 23.314C96.7042 22.2513 97.0209 21.3664 97.6551 20.6607C98.3189 19.9072 99.216 19.5305 100.345 19.5305C101.454 19.5305 102.293 19.9072 102.863 20.6607C103.314 21.2592 103.541 21.9995 103.541 22.8785ZM101.911 22.4729C101.923 22.0088 101.811 21.6078 101.58 21.2693C101.284 20.8338 100.829 20.6164 100.217 20.6164C99.6586 20.6164 99.204 20.8287 98.8569 21.2546C98.5723 21.5931 98.4031 21.9992 98.351 22.4722H101.911V22.4729Z" fill="white"/>
<path d="M96.613 12.9632C96.0464 12.9632 95.5822 12.7795 95.2202 12.4123C94.8582 12.0399 94.6772 11.5572 94.6772 10.9645C94.6772 10.4084 94.8556 9.93888 95.2123 9.55593C95.5691 9.16773 96.015 8.97363 96.55 8.97363C97.1114 8.97363 97.5546 9.16773 97.8799 9.55593C98.2104 9.93888 98.3756 10.4241 98.3756 11.0117V11.1612H95.2989C95.3251 11.5336 95.4615 11.8458 95.7081 12.0976C95.9546 12.3494 96.2746 12.4753 96.6681 12.4753C97.1402 12.4753 97.531 12.3153 97.8405 11.9953L98.1238 12.3809C97.7356 12.7691 97.232 12.9632 96.613 12.9632ZM97.7933 10.7284C97.7881 10.4031 97.6779 10.112 97.4628 9.85495C97.2477 9.59265 96.9409 9.4615 96.5422 9.4615C96.1645 9.4615 95.8654 9.59003 95.6451 9.84708C95.43 10.1041 95.3146 10.3979 95.2989 10.7284H97.7933Z" fill="white"/>
<path d="M93.7192 12.8687H93.129V10.3664C93.129 10.0516 93.0556 9.82865 92.9087 9.6975C92.7618 9.56635 92.5494 9.50078 92.2713 9.50078C92.0562 9.50078 91.8438 9.55848 91.6339 9.67389C91.4294 9.7893 91.2667 9.92832 91.1461 10.0909V12.8687H90.5559V7.62012H91.1461V9.61881C91.293 9.4457 91.4897 9.29619 91.7362 9.17029C91.9828 9.03914 92.2398 8.97356 92.5074 8.97356C93.3153 8.97356 93.7192 9.3775 93.7192 10.1854V12.8687Z" fill="white"/>
<path d="M89.2027 12.9631C88.9246 12.9631 88.7148 12.887 88.5732 12.7349C88.4315 12.5828 88.3607 12.3624 88.3607 12.0739V9.58733H87.7312V9.06799H88.3607V8.0293H88.9509V9.06799H89.722V9.58733H88.9509V11.948C88.9509 12.0949 88.9824 12.2129 89.0453 12.3021C89.1135 12.3913 89.2106 12.4359 89.3365 12.4359C89.5096 12.4359 89.6433 12.3834 89.7378 12.2785L89.9109 12.7191C89.7378 12.8818 89.5017 12.9631 89.2027 12.9631Z" fill="white"/>
<path d="M85.0355 12.8687H84.4454V10.3822C84.4454 10.0622 84.3719 9.83659 84.2251 9.70544C84.0782 9.56904 83.8683 9.50085 83.5955 9.50085C83.3752 9.50085 83.1601 9.55855 82.9503 9.67396C82.7457 9.78937 82.5857 9.92839 82.4703 10.091V12.8687H81.8801V9.06806H82.4703V9.61888C82.6172 9.44577 82.8139 9.29626 83.0605 9.17035C83.307 9.03921 83.5614 8.97363 83.8237 8.97363C84.6316 8.97363 85.0355 9.38281 85.0355 10.2012V12.8687Z" fill="white"/>
<path d="M80.3987 12.3887C80.0577 12.7717 79.604 12.9632 79.0374 12.9632C78.4708 12.9632 78.0144 12.7717 77.6682 12.3887C77.3272 12.0058 77.1567 11.531 77.1567 10.9645C77.1567 10.3979 77.3272 9.92577 77.6682 9.54806C78.0144 9.16511 78.4708 8.97363 79.0374 8.97363C79.604 8.97363 80.0577 9.16511 80.3987 9.54806C80.7449 9.92577 80.9181 10.3979 80.9181 10.9645C80.9181 11.531 80.7449 12.0058 80.3987 12.3887ZM78.1089 12.011C78.3397 12.2943 78.6492 12.4359 79.0374 12.4359C79.4256 12.4359 79.7325 12.2943 79.9581 12.011C80.1836 11.7225 80.2964 11.3736 80.2964 10.9645C80.2964 10.5553 80.1836 10.209 79.9581 9.92577C79.7325 9.64249 79.4256 9.50085 79.0374 9.50085C78.6492 9.50085 78.3397 9.64511 78.1089 9.93364C77.8833 10.2169 77.7705 10.5605 77.7705 10.9645C77.7705 11.3736 77.8833 11.7225 78.1089 12.011Z" fill="white"/>
<path d="M74.1664 12.8687H73.5762V12.3021C73.251 12.7428 72.8235 12.9631 72.2936 12.9631C71.79 12.9631 71.3808 12.7847 71.0661 12.428C70.7566 12.066 70.6018 11.5808 70.6018 10.9723C70.6018 10.369 70.7566 9.88635 71.0661 9.52439C71.3808 9.15717 71.79 8.97356 72.2936 8.97356C72.8182 8.97356 73.2458 9.19652 73.5762 9.64242V7.62012H74.1664V12.8687ZM72.4353 12.4359C72.6661 12.4359 72.8864 12.3782 73.0962 12.2628C73.3061 12.1473 73.4661 12.0057 73.5762 11.8378V10.1146C73.4661 9.94144 73.3035 9.79717 73.0884 9.68176C72.8785 9.56111 72.6608 9.50078 72.4353 9.50078C72.0628 9.50078 71.7664 9.6398 71.5461 9.91783C71.3257 10.1906 71.2156 10.5421 71.2156 10.9723C71.2156 11.4024 71.3257 11.7539 71.5461 12.0267C71.7664 12.2995 72.0628 12.4359 72.4353 12.4359Z" fill="white"/>
<path d="M69.639 12.8687H69.0488V12.4359C68.7288 12.7874 68.3091 12.9632 67.7898 12.9632C67.4383 12.9632 67.1288 12.8504 66.8613 12.6248C66.5937 12.3992 66.46 12.0923 66.46 11.7041C66.46 11.3054 66.5911 10.9986 66.8534 10.7835C67.1209 10.5631 67.4331 10.453 67.7898 10.453C68.3301 10.453 68.7498 10.6261 69.0488 10.9723V10.2877C69.0488 10.0359 68.9596 9.83921 68.7813 9.69757C68.6029 9.55593 68.3721 9.48511 68.0888 9.48511C67.6429 9.48511 67.2547 9.66085 66.9242 10.0123L66.6488 9.60314C67.0527 9.18347 67.559 8.97363 68.1675 8.97363C68.6029 8.97363 68.957 9.07855 69.2298 9.28839C69.5026 9.49822 69.639 9.82085 69.639 10.2563V12.8687ZM68.0023 12.5382C68.4744 12.5382 68.8232 12.3809 69.0488 12.0661V11.35C68.8232 11.0353 68.4744 10.8779 68.0023 10.8779C67.7295 10.8779 67.5039 10.9566 67.3255 11.114C67.1524 11.2661 67.0659 11.4654 67.0659 11.712C67.0659 11.9533 67.1524 12.1527 67.3255 12.31C67.5039 12.4622 67.7295 12.5382 68.0023 12.5382Z" fill="white"/>
<path d="M65.1912 12.3887C64.8502 12.7717 64.3964 12.9632 63.8299 12.9632C63.2633 12.9632 62.8069 12.7717 62.4607 12.3887C62.1197 12.0058 61.9492 11.531 61.9492 10.9645C61.9492 10.3979 62.1197 9.92577 62.4607 9.54806C62.8069 9.16511 63.2633 8.97363 63.8299 8.97363C64.3964 8.97363 64.8502 9.16511 65.1912 9.54806C65.5374 9.92577 65.7105 10.3979 65.7105 10.9645C65.7105 11.531 65.5374 12.0058 65.1912 12.3887ZM62.9014 12.011C63.1322 12.2943 63.4417 12.4359 63.8299 12.4359C64.2181 12.4359 64.525 12.2943 64.7505 12.011C64.9761 11.7225 65.0889 11.3736 65.0889 10.9645C65.0889 10.5553 64.9761 10.209 64.7505 9.92577C64.525 9.64249 64.2181 9.50085 63.8299 9.50085C63.4417 9.50085 63.1322 9.64511 62.9014 9.93364C62.6758 10.2169 62.563 10.5605 62.563 10.9645C62.563 11.3736 62.6758 11.7225 62.9014 12.011Z" fill="white"/>
<path d="M60.9923 12.8687H60.4021V7.62012H60.9923V12.8687Z" fill="white"/>
<path d="M59.2233 12.8687H58.6331V10.3822C58.6331 10.0622 58.5597 9.83659 58.4128 9.70544C58.2659 9.56904 58.0561 9.50085 57.7833 9.50085C57.563 9.50085 57.3479 9.55855 57.138 9.67396C56.9334 9.78937 56.7734 9.92839 56.658 10.091V12.8687H56.0679V9.06806H56.658V9.61888C56.8049 9.44577 57.0016 9.29626 57.2482 9.17035C57.4948 9.03921 57.7492 8.97363 58.0115 8.97363C58.8194 8.97363 59.2233 9.38281 59.2233 10.2012V12.8687Z" fill="white"/>
<path d="M54.1686 12.8685H53.5784L52.5869 9.81541L51.5954 12.8685H51.0053L49.7935 9.06787H50.4072L51.3358 12.0974L52.3351 9.06787H52.8387L53.8381 12.0974L54.7666 9.06787H55.3804L54.1686 12.8685Z" fill="white"/>
<path d="M48.8079 12.3887C48.4669 12.7717 48.0131 12.9632 47.4466 12.9632C46.88 12.9632 46.4236 12.7717 46.0774 12.3887C45.7364 12.0058 45.5659 11.531 45.5659 10.9645C45.5659 10.3979 45.7364 9.92577 46.0774 9.54806C46.4236 9.16511 46.88 8.97363 47.4466 8.97363C48.0131 8.97363 48.4669 9.16511 48.8079 9.54806C49.1541 9.92577 49.3272 10.3979 49.3272 10.9645C49.3272 11.531 49.1541 12.0058 48.8079 12.3887ZM46.5181 12.011C46.7489 12.2943 47.0584 12.4359 47.4466 12.4359C47.8348 12.4359 48.1417 12.2943 48.3672 12.011C48.5928 11.7225 48.7056 11.3736 48.7056 10.9645C48.7056 10.5553 48.5928 10.209 48.3672 9.92577C48.1417 9.64249 47.8348 9.50085 47.4466 9.50085C47.0584 9.50085 46.7489 9.64511 46.5181 9.93364C46.2925 10.2169 46.1797 10.5605 46.1797 10.9645C46.1797 11.3736 46.2925 11.7225 46.5181 12.011Z" fill="white"/>
<path d="M42.0942 12.8687H40.3V7.62012H42.0942C42.8968 7.62012 43.5446 7.8693 44.0378 8.36766C44.5361 8.86602 44.7853 9.49291 44.7853 10.2483C44.7853 11.009 44.5361 11.6359 44.0378 12.129C43.5446 12.6221 42.8968 12.8687 42.0942 12.8687ZM42.0942 12.2864C42.7132 12.2864 43.2037 12.0923 43.5656 11.7041C43.9276 11.3159 44.1086 10.8306 44.1086 10.2483C44.1086 9.66078 43.9302 9.17291 43.5735 8.78471C43.2168 8.39651 42.7237 8.20241 42.0942 8.20241H40.9532V12.2864H42.0942Z" fill="white"/>
<path fill-rule="evenodd" clip-rule="evenodd" d="M96.55 9.07221C96.042 9.07221 95.6225 9.25511 95.2847 9.6227C94.9461 9.98623 94.7756 10.4318 94.7756 10.9647C94.7756 11.5356 94.9491 11.9923 95.2905 12.3437C95.632 12.6901 96.07 12.865 96.613 12.865C97.1771 12.865 97.6347 12.6985 97.9934 12.3698L97.828 12.1446C97.5127 12.4311 97.1241 12.5739 96.668 12.5739C96.2515 12.5739 95.9051 12.4396 95.6378 12.1666C95.3738 11.8971 95.2285 11.5626 95.2007 11.1683L95.1933 11.063H98.2772V11.0119C98.2772 10.4439 98.118 9.98267 97.8054 9.62041L97.8045 9.61932C97.5001 9.25602 97.0858 9.07221 96.55 9.07221ZM95.1401 9.48935C95.5157 9.0807 95.988 8.87549 96.55 8.87549C97.1366 8.87549 97.6087 9.07969 97.9548 9.4924C98.3028 9.89597 98.474 10.405 98.474 11.0119V11.2598H95.4077C95.4487 11.5636 95.5725 11.8187 95.7783 12.029C96.0041 12.2596 96.2977 12.3771 96.668 12.3771C97.1153 12.3771 97.48 12.2267 97.7698 11.9271L97.8508 11.8434L98.2531 12.3909L98.1933 12.4506C97.7843 12.8597 97.2544 13.0617 96.613 13.0617C96.0229 13.0617 95.5325 12.8695 95.1501 12.4816C94.7678 12.0882 94.5789 11.5791 94.5789 10.9647C94.5789 10.3856 94.7654 9.89167 95.1401 9.48935ZM95.5704 9.78328C95.8117 9.50175 96.1395 9.36336 96.5421 9.36336C96.9644 9.36336 97.3014 9.50349 97.5385 9.79241C97.7674 10.0661 97.886 10.3787 97.8916 10.727L97.8933 10.827H95.1957L95.2006 10.7239C95.2174 10.3717 95.341 10.0575 95.5697 9.78417L95.5704 9.78328ZM95.7202 9.91076C95.5416 10.1243 95.4372 10.3635 95.4056 10.6302H97.6897C97.6661 10.3684 97.566 10.1318 97.3874 9.91828C97.1943 9.68288 96.9171 9.56008 96.5421 9.56008C96.1897 9.56008 95.9195 9.67855 95.7202 9.91076Z" fill="white"/>
<path fill-rule="evenodd" clip-rule="evenodd" d="M90.4575 7.52197H91.2444V9.38008C91.3713 9.2691 91.5204 9.17032 91.6907 9.08328C91.9507 8.94517 92.2233 8.87542 92.5074 8.87542C92.9265 8.87542 93.2589 8.98026 93.4858 9.20718C93.7127 9.4341 93.8175 9.76649 93.8175 10.1856V12.9672H93.0306V10.3666C93.0306 10.0634 92.9594 9.87489 92.8432 9.77109C92.7205 9.66159 92.5351 9.59936 92.2713 9.59936C92.0748 9.59936 91.8787 9.65186 91.6819 9.76C91.4986 9.86343 91.3536 9.98519 91.2444 10.1244V12.9672H90.4575V7.52197ZM90.6542 7.71869V12.7705H91.0477V10.0587L91.0671 10.0326C91.1971 9.85723 91.3709 9.70955 91.5856 9.58844L91.5865 9.58793C91.8092 9.46545 92.0378 9.40263 92.2713 9.40263C92.5636 9.40263 92.803 9.47154 92.9742 9.62435C93.1517 9.78285 93.2274 10.0402 93.2274 10.3666V12.7705H93.6208V10.1856C93.6208 9.79681 93.5237 9.5233 93.3467 9.34628C93.1697 9.16927 92.8961 9.07214 92.5074 9.07214C92.2566 9.07214 92.0154 9.13342 91.7824 9.25734L91.7809 9.2581C91.5435 9.37936 91.3579 9.52138 91.221 9.68267L91.0477 9.88699V7.71869H90.6542Z" fill="white"/>
<path fill-rule="evenodd" clip-rule="evenodd" d="M88.2623 7.93115H89.0492V8.96984H89.8204V9.68591H89.0492V11.9482C89.0492 12.0807 89.0774 12.1764 89.1245 12.244C89.1716 12.3047 89.2377 12.3377 89.3364 12.3377C89.4885 12.3377 89.593 12.2925 89.6646 12.2129L89.7711 12.0946L90.0268 12.7454L89.9782 12.7911C89.7825 12.9749 89.5199 13.0617 89.2027 13.0617C88.9069 13.0617 88.6671 12.9803 88.5012 12.8021C88.3369 12.6257 88.2623 12.3778 88.2623 12.0741V9.68591H87.6328V8.96984H88.2623V7.93115ZM88.459 8.12787V9.16657H87.8295V9.48919H88.459V12.0741C88.459 12.3475 88.5261 12.5402 88.6451 12.6681C88.7625 12.7941 88.9423 12.8649 89.2027 12.8649C89.4537 12.8649 89.6479 12.8042 89.7938 12.6903L89.696 12.4414C89.5951 12.5047 89.4735 12.5344 89.3364 12.5344C89.1841 12.5344 89.0564 12.4788 88.9671 12.3621L88.9649 12.3591C88.8868 12.2484 88.8525 12.1085 88.8525 11.9482V9.48919H89.6236V9.16657H88.8525V8.12787H88.459Z" fill="white"/>
<path fill-rule="evenodd" clip-rule="evenodd" d="M83.8237 9.07221C83.5786 9.07221 83.3399 9.13332 83.1066 9.25741L83.1052 9.25817C82.8677 9.37943 82.6821 9.52145 82.5453 9.68273L82.3719 9.88705V9.16664H81.9785V12.7706H82.3719V10.0599L82.3901 10.0343C82.5152 9.85795 82.687 9.70978 82.9019 9.58851L82.9029 9.58799C83.1259 9.46531 83.3572 9.4027 83.5955 9.4027C83.8836 9.4027 84.1205 9.47478 84.2912 9.63292C84.4685 9.79173 84.5437 10.0518 84.5437 10.3824V12.7706H84.9372V10.2014C84.9372 9.80706 84.8399 9.52943 84.6626 9.34984C84.4855 9.17047 84.2122 9.07221 83.8237 9.07221ZM83.015 9.08335C83.2746 8.94539 83.5445 8.87549 83.8237 8.87549C84.2431 8.87549 84.5757 8.98182 84.8026 9.21163C85.0292 9.44122 85.1339 9.77737 85.1339 10.2014V12.9673H84.347V10.3824C84.347 10.0734 84.2755 9.88257 84.1595 9.77903L84.1581 9.77773C84.0351 9.66354 83.8526 9.59942 83.5955 9.59942C83.3934 9.59942 83.1946 9.65213 82.9982 9.76007C82.8151 9.86344 82.6728 9.98489 82.5686 10.1233V12.9673H81.7817V8.96992H82.5686V9.38015C82.6956 9.26917 82.8446 9.17039 83.015 9.08335Z" fill="white"/>
<path fill-rule="evenodd" clip-rule="evenodd" d="M79.0374 9.07221C78.4956 9.07221 78.0668 9.25404 77.7412 9.61419C77.4184 9.97173 77.2551 10.4195 77.2551 10.9647C77.2551 11.5097 77.4184 11.9604 77.7415 12.3233C78.0671 12.6833 78.4958 12.865 79.0374 12.865C79.5792 12.865 80.005 12.6832 80.3252 12.3235L80.3257 12.323C80.654 11.9599 80.8197 11.5094 80.8197 10.9647C80.8197 10.4199 80.654 9.97233 80.3262 9.61474L80.3252 9.61369C80.005 9.25404 79.5792 9.07221 79.0374 9.07221ZM77.5952 9.48231C77.962 9.07659 78.446 8.87549 79.0374 8.87549C79.6284 8.87549 80.11 9.07644 80.4717 9.48233C80.4718 9.48251 80.472 9.48269 80.4721 9.48287L80.3987 9.54828L80.4712 9.48181C80.4714 9.48199 80.4715 9.48216 80.4717 9.48233C80.836 9.88007 81.0164 10.3766 81.0164 10.9647C81.0164 11.5529 80.836 12.0518 80.4719 12.4546C80.472 12.4545 80.4721 12.4544 80.4721 12.4544L80.3987 12.3889L80.4716 12.4549C80.4717 12.4548 80.4718 12.4547 80.4719 12.4546C80.1102 12.8607 79.6286 13.0617 79.0374 13.0617C78.446 13.0617 77.962 12.8606 77.5952 12.4549L77.5947 12.4544C77.236 12.0514 77.0583 11.5526 77.0583 10.9647C77.0583 10.3767 77.236 9.88024 77.5952 9.48237L77.5952 9.48231ZM78.032 9.87241C78.2826 9.55922 78.621 9.4027 79.0374 9.4027C79.453 9.4027 79.7892 9.55612 80.035 9.86471C80.2762 10.1677 80.3948 10.5363 80.3948 10.9647C80.3948 11.3931 80.2762 11.764 80.0355 12.0718L80.035 12.0725C79.7892 12.3811 79.453 12.5345 79.0374 12.5345C78.6217 12.5345 78.2834 12.3812 78.0326 12.0734L78.0314 12.0718C77.7907 11.764 77.6721 11.3931 77.6721 10.9647C77.6721 10.5412 77.7909 10.1753 78.0319 9.87258L78.032 9.87241ZM78.1857 9.99522C77.9757 10.2591 77.8688 10.5803 77.8688 10.9647C77.8688 11.3542 77.9756 11.6808 78.1857 11.9498C78.3965 12.2081 78.677 12.3378 79.0374 12.3378C79.3979 12.3378 79.6754 12.2081 79.8808 11.9503C80.0911 11.6812 80.198 11.3545 80.198 10.9647C80.198 10.5747 80.091 10.2509 79.8811 9.98726C79.6757 9.72929 79.3981 9.59942 79.0374 9.59942C78.6773 9.59942 78.3968 9.73141 78.1857 9.99522Z" fill="white"/>
<path fill-rule="evenodd" clip-rule="evenodd" d="M73.4779 7.52197H74.2647V12.9672H73.4779V12.5705C73.1601 12.8965 72.7639 13.0617 72.2936 13.0617C71.7636 13.0617 71.3269 12.8725 70.9923 12.4933L70.9913 12.4921C70.6627 12.1079 70.5034 11.5978 70.5034 10.9725C70.5034 10.3522 70.6628 9.8448 70.9913 9.46068C71.3256 9.07065 71.7626 8.87542 72.2936 8.87542C72.7611 8.87542 73.1571 9.04359 73.4779 9.37429V7.52197ZM73.6746 7.71869V9.94053L73.4972 9.70121C73.184 9.27863 72.785 9.07214 72.2936 9.07214C71.8174 9.07214 71.436 9.24418 71.1408 9.58853M73.6746 7.71869H74.068V12.7705H73.6746V12.0034L73.4971 12.2439C73.1896 12.6604 72.791 12.8649 72.2936 12.8649C71.8166 12.8649 71.4351 12.6975 71.1403 12.3638C70.8502 12.0241 70.7001 11.5639 70.7001 10.9725C70.7001 10.3863 70.8503 9.92833 71.1408 9.58853M71.4692 9.8566C71.7093 9.55393 72.0346 9.40263 72.4352 9.40263C72.6788 9.40263 72.9129 9.46788 73.1361 9.59598C73.1365 9.59622 73.137 9.59647 73.1374 9.59671L73.0884 9.68193L73.1349 9.59531C73.1353 9.59553 73.1357 9.59575 73.1361 9.59598C73.3626 9.71775 73.5386 9.87249 73.6592 10.062L73.6746 10.0861V11.8674L73.6585 11.892C73.5379 12.0757 73.3648 12.2275 73.1436 12.3492C72.9198 12.4722 72.6833 12.5344 72.4352 12.5344C72.0352 12.5344 71.7098 12.3862 71.4695 12.0887C71.2321 11.7947 71.1172 11.4199 71.1172 10.9725C71.1172 10.5253 71.232 10.1505 71.4692 9.8566ZM72.4352 9.59936C72.0911 9.59936 71.8238 9.72597 71.6231 9.97914C71.4199 10.2307 71.3139 10.5595 71.3139 10.9725C71.3139 11.3854 71.4194 11.7135 71.6226 11.9651C71.8229 12.2132 72.0904 12.3377 72.4352 12.3377C72.6488 12.3377 72.8529 12.2845 73.0488 12.1768C73.2369 12.0734 73.3786 11.9499 73.4779 11.8079V10.1442C73.3786 9.9978 73.2347 9.87213 73.0418 9.76865L73.0393 9.76729C72.8432 9.65456 72.6423 9.59936 72.4352 9.59936Z" fill="white"/>
<path fill-rule="evenodd" clip-rule="evenodd" d="M66.7756 9.61555L66.9389 9.85829C67.2678 9.54616 67.6522 9.38697 68.0888 9.38697C68.3887 9.38697 68.6428 9.46221 68.8424 9.62076C69.047 9.78319 69.1472 10.0098 69.1472 10.288V11.2369L68.9744 11.0368C68.6975 10.7162 68.3072 10.5516 67.7898 10.5516C67.4551 10.5516 67.1653 10.6542 66.9159 10.8596C66.6805 11.0527 66.5583 11.3294 66.5583 11.7044C66.5583 12.0671 66.6819 12.3451 66.9246 12.5498C67.1744 12.7604 67.4614 12.865 67.7898 12.865C68.2843 12.865 68.6765 12.6989 68.9761 12.3699L69.1472 12.182V12.7706H69.5406V10.2565C69.5406 9.8427 69.4121 9.55296 69.1698 9.36657C68.9183 9.17312 68.587 9.07221 68.1675 9.07221C67.6123 9.07221 67.1504 9.25342 66.7756 9.61555ZM66.5779 9.53515C67.0013 9.09527 67.5336 8.87549 68.1675 8.87549C68.6188 8.87549 68.9957 8.98441 69.2897 9.21064C69.593 9.44393 69.7373 9.79943 69.7373 10.2565V12.9673H68.9504V12.667C68.6359 12.9308 68.2471 13.0617 67.7898 13.0617C67.4152 13.0617 67.0832 12.9408 66.7978 12.7002C66.5055 12.4538 66.3616 12.118 66.3616 11.7044C66.3616 11.282 66.5018 10.9449 66.7908 10.7078C67.0766 10.4725 67.411 10.3548 67.7898 10.3548C68.2583 10.3548 68.6478 10.4805 68.9504 10.7368V10.288C68.9504 10.0625 68.8723 9.89566 68.7201 9.77481C68.563 9.65008 68.3554 9.58369 68.0888 9.58369C67.6724 9.58369 67.3095 9.74641 66.9959 10.0799L66.9114 10.1697L66.5228 9.59238L66.5779 9.53515ZM67.2605 11.0404C67.4595 10.8649 67.7093 10.7798 68.0022 10.7798C68.4982 10.7798 68.8806 10.9467 69.1287 11.293L69.1472 11.3186V12.0979L69.1287 12.1236C68.8806 12.4699 68.4982 12.6368 68.0022 12.6368C67.7101 12.6368 67.4607 12.5548 67.2617 12.3851L67.2593 12.3831C67.065 12.2064 66.9675 11.9803 66.9675 11.7122C66.9675 11.4396 67.0646 11.2126 67.2605 11.0404ZM68.0022 10.9765C67.7497 10.9765 67.5484 11.0487 67.3906 11.1879C67.2403 11.32 67.1642 11.4917 67.1642 11.7122C67.1642 11.9263 67.2394 12.0985 67.3905 12.2364C67.548 12.3703 67.7494 12.4401 68.0022 12.4401C68.4372 12.4401 68.747 12.3009 68.9504 12.0339V11.3826C68.747 11.1157 68.4372 10.9765 68.0022 10.9765Z" fill="white"/>
<path fill-rule="evenodd" clip-rule="evenodd" d="M63.8299 9.07221C63.2881 9.07221 62.8593 9.25406 62.5336 9.61424C62.2109 9.97177 62.0476 10.4195 62.0476 10.9647C62.0476 11.5097 62.2108 11.9602 62.5338 12.3232C62.8594 12.6832 63.2882 12.865 63.8299 12.865C64.3716 12.865 64.7975 12.6832 65.1177 12.3235L65.1182 12.323C65.4464 11.9599 65.6122 11.5094 65.6122 10.9647C65.6122 10.4199 65.4465 9.97233 65.1187 9.61474L65.1177 9.61369C64.7975 9.25404 64.3716 9.07221 63.8299 9.07221ZM62.3877 9.48231C62.7545 9.07659 63.2385 8.87549 63.8299 8.87549C64.4209 8.87549 64.9025 9.07644 65.2642 9.48233C65.2643 9.48251 65.2645 9.48269 65.2646 9.48287L65.1912 9.54825L65.2637 9.48181C65.2638 9.48199 65.264 9.48216 65.2642 9.48233C65.6285 9.88007 65.8089 10.3766 65.8089 10.9647C65.8089 11.5529 65.6284 12.0518 65.2644 12.4546C65.2645 12.4545 65.2645 12.4544 65.2646 12.4544L65.1912 12.3889L65.2641 12.4549C65.2642 12.4548 65.2643 12.4547 65.2644 12.4546C64.9027 12.8607 64.4211 13.0617 63.8299 13.0617C63.2385 13.0617 62.7545 12.8606 62.3877 12.4549L62.3872 12.4544C62.0285 12.0514 61.8508 11.5526 61.8508 10.9647C61.8508 10.3767 62.0285 9.88024 62.3877 9.48237L62.3877 9.48231ZM62.8245 9.87241C63.0751 9.55922 63.4135 9.4027 63.8299 9.4027C64.2455 9.4027 64.5817 9.55612 64.8275 9.86471C65.0687 10.1677 65.1872 10.5363 65.1872 10.9647C65.1872 11.3931 65.0687 11.764 64.828 12.0718L64.8275 12.0725C64.5817 12.3811 64.2455 12.5345 63.8299 12.5345C63.4142 12.5345 63.0759 12.3812 62.8251 12.0734L62.8238 12.0718L62.8238 12.0718C62.5832 11.764 62.4646 11.3931 62.4646 10.9647C62.4646 10.5412 62.5833 10.1753 62.8244 9.87258L62.8245 9.87241ZM62.9782 9.99522C62.7681 10.2591 62.6613 10.5803 62.6613 10.9647C62.6613 11.3542 62.7681 11.6808 62.9782 11.9499C63.189 12.2081 63.4695 12.3378 63.8299 12.3378C64.1904 12.3378 64.4679 12.2081 64.6733 11.9503C64.8836 11.6812 64.9905 11.3545 64.9905 10.9647C64.9905 10.5747 64.8835 10.2509 64.6736 9.98726C64.4681 9.72929 64.1906 9.59942 63.8299 9.59942C63.4698 9.59942 63.1893 9.73141 62.9782 9.99522Z" fill="white"/>
<path fill-rule="evenodd" clip-rule="evenodd" d="M60.3037 7.52197H61.0906V12.9672H60.3037V7.52197ZM60.5004 7.71869V12.7705H60.8939V7.71869H60.5004Z" fill="white"/>
<path fill-rule="evenodd" clip-rule="evenodd" d="M58.0115 9.07221C57.7663 9.07221 57.5277 9.13332 57.2944 9.25741L57.2929 9.25817C57.0554 9.37943 56.8699 9.52145 56.733 9.68273L56.5596 9.88705V9.16664H56.1662V12.7706H56.5596V10.0599L56.5778 10.0343C56.703 9.85795 56.8747 9.70978 57.0897 9.58851L57.0906 9.58799C57.3137 9.46531 57.5449 9.4027 57.7833 9.4027C58.0714 9.4027 58.3083 9.47478 58.479 9.63292C58.6563 9.79173 58.7315 10.0518 58.7315 10.3824V12.7706H59.1249V10.2014C59.1249 9.80706 59.0276 9.52943 58.8503 9.34984C58.6733 9.17047 58.3999 9.07221 58.0115 9.07221ZM57.2027 9.08335C57.4623 8.94539 57.7323 8.87549 58.0115 8.87549C58.4309 8.87549 58.7634 8.98182 58.9903 9.21163C59.217 9.44122 59.3216 9.77737 59.3216 10.2014V12.9673H58.5347V10.3824C58.5347 10.0734 58.4632 9.88257 58.3473 9.77903L58.3458 9.77775C58.2228 9.66355 58.0403 9.59942 57.7833 9.59942C57.5811 9.59942 57.3823 9.65215 57.1859 9.76011C57.0028 9.86347 56.8605 9.98491 56.7564 10.1233V12.9673H55.9695V8.96992H56.7564V9.38015C56.8833 9.26917 57.0324 9.17039 57.2027 9.08335Z" fill="white"/>
<path fill-rule="evenodd" clip-rule="evenodd" d="M49.6589 8.96973H50.48L51.3393 11.7732L52.2641 8.96973H52.9099L53.8347 11.7732L54.6939 8.96973H55.515L54.2405 12.9671H53.507L52.587 10.1341L51.667 12.9671H50.9335L49.6589 8.96973ZM49.9281 9.16645L51.0772 12.7704H51.524L52.587 9.49717L53.6499 12.7704H54.0968L55.2458 9.16645H54.8394L53.8416 12.422L52.7677 9.16645H52.4063L51.3324 12.422L50.3346 9.16645H49.9281Z" fill="white"/>
<path fill-rule="evenodd" clip-rule="evenodd" d="M47.4466 9.07221C46.9048 9.07221 46.476 9.25406 46.1503 9.61424L46.0774 9.54828L46.1504 9.61419C45.8276 9.97173 45.6643 10.4195 45.6643 10.9647C45.6643 11.5097 45.8275 11.9603 46.1506 12.3233C46.4762 12.6833 46.9049 12.865 47.4466 12.865C47.9883 12.865 48.4142 12.6832 48.7344 12.3235L48.7349 12.323C49.0631 11.9599 49.2289 11.5094 49.2289 10.9647C49.2289 10.4199 49.0632 9.97233 48.7354 9.61474L48.7344 9.61369L48.7344 9.61369C48.4142 9.25404 47.9883 9.07221 47.4466 9.07221ZM46.0044 9.48231C46.3712 9.07659 46.8552 8.87549 47.4466 8.87549C48.0376 8.87549 48.5192 9.07645 48.8809 9.48238C49.2452 9.8801 49.4256 10.3766 49.4256 10.9647C49.4256 11.5529 49.2451 12.0518 48.8811 12.4546C48.5194 12.8607 48.0378 13.0617 47.4466 13.0617C46.8552 13.0617 46.3712 12.8606 46.0044 12.4549L46.0039 12.4544C45.6452 12.0514 45.4675 11.5526 45.4675 10.9647C45.4675 10.3767 45.6452 9.88024 46.0044 9.48237L46.0044 9.48231ZM46.4412 9.87241C46.6918 9.55922 47.0302 9.4027 47.4466 9.4027C47.8622 9.4027 48.1984 9.55612 48.4442 9.86471C48.6854 10.1677 48.8039 10.5363 48.8039 10.9647C48.8039 11.3931 48.6854 11.764 48.4447 12.0718L48.4442 12.0725C48.1984 12.3811 47.8622 12.5345 47.4466 12.5345C47.0309 12.5345 46.6926 12.3812 46.4418 12.0734L46.4405 12.0718L46.4405 12.0718C46.1999 11.764 46.0813 11.3931 46.0813 10.9647C46.0813 10.5412 46.2 10.1753 46.4411 9.87258L46.4412 9.87241ZM46.5949 9.99522C46.3848 10.2591 46.278 10.5803 46.278 10.9647C46.278 11.3542 46.3848 11.6808 46.5949 11.9499C46.8057 12.2081 47.0862 12.3378 47.4466 12.3378C47.8071 12.3378 48.0846 12.208 48.29 11.9503C48.5003 11.6811 48.6072 11.3544 48.6072 10.9647C48.6072 10.5747 48.5002 10.2509 48.2903 9.98726C48.0848 9.72929 47.8073 9.59942 47.4466 9.59942C47.0865 9.59942 46.806 9.73141 46.5949 9.99522Z" fill="white"/>
<path fill-rule="evenodd" clip-rule="evenodd" d="M40.2017 7.52197H42.0941C42.9188 7.52197 43.5932 7.77885 44.1075 8.29851C44.6256 8.8167 44.8836 9.46921 44.8836 10.2485C44.8836 11.0329 44.6257 11.6857 44.1071 12.1989C43.5928 12.7132 42.9185 12.9672 42.0941 12.9672H40.2017V7.52197ZM40.3984 7.71869V12.7705H42.0941C42.8749 12.7705 43.4963 12.5315 43.9682 12.0596C44.4462 11.5867 44.6869 10.9854 44.6869 10.2485C44.6869 9.51714 44.4467 8.91593 43.9682 8.43743C43.4963 7.96049 42.8746 7.71869 42.0941 7.71869H40.3984ZM40.8548 8.10427H42.0941C42.7454 8.10427 43.267 8.30599 43.6459 8.71837C44.0213 9.12685 44.2069 9.63939 44.2069 10.2485C44.2069 10.8531 44.0182 11.3631 43.6375 11.7714C43.2538 12.1829 42.7355 12.3849 42.0941 12.3849H40.8548V8.10427ZM41.0515 8.30099V12.1882H42.0941C42.6908 12.1882 43.1534 12.0021 43.4937 11.6372C43.8369 11.2691 44.0102 10.8086 44.0102 10.2485C44.0102 9.6826 43.8391 9.2194 43.501 8.85148C43.1665 8.48747 42.7019 8.30099 42.0941 8.30099H41.0515Z" fill="white"/>
</svg>
