<svg width="120" height="36" viewBox="0 0 120 36" fill="none" xmlns="http://www.w3.org/2000/svg">
<rect width="120" height="36" rx="8" fill="black"/>
<rect x="0.5" y="0.5" width="119" height="35" rx="7.5" stroke="white" stroke-opacity="0.3"/>
<path fill-rule="evenodd" clip-rule="evenodd" d="M43.8204 20.993V22.4748H47.482C47.4246 23.1728 47.1259 23.8313 46.6344 24.3436C45.8937 25.0764 44.8685 25.4711 43.812 25.4302C41.565 25.4302 39.7435 23.6611 39.7435 21.4787C39.7435 19.2963 41.565 17.5271 43.812 17.5271C44.8442 17.5108 45.8409 17.8927 46.5836 18.5891L47.66 17.5436C46.6471 16.5474 45.2619 15.992 43.8204 16.0041C41.7684 15.9266 39.8371 16.9457 38.7873 18.66C37.7376 20.3743 37.7376 22.509 38.7873 24.2233C39.8371 25.9376 41.7684 26.9567 43.8204 26.8791C45.2883 26.9436 46.713 26.3882 47.7278 25.3562C48.6158 24.4085 49.0899 23.1628 49.0501 21.8821C49.0528 21.5701 49.0244 21.2585 48.9653 20.9518L43.8204 20.993ZM53.2201 19.9144C51.2318 19.919 49.6232 21.4874 49.6263 23.4187C49.6295 25.3499 51.243 26.9135 53.2314 26.912C55.2198 26.9104 56.8308 25.3444 56.8308 23.4132C56.8448 22.4783 56.4674 21.5779 55.7851 20.9184C55.1028 20.2588 54.1741 19.8965 53.2116 19.9144H53.2201ZM57.526 23.4241C57.5198 21.494 59.1241 19.9235 61.1113 19.9144C62.0738 19.8965 63.0025 20.2588 63.6848 20.9184C64.3671 21.5779 64.7445 22.4783 64.7305 23.4132C64.7305 25.3434 63.1211 26.9089 61.1339 26.9119C59.1466 26.9149 57.5322 25.3543 57.526 23.4241ZM59.1551 24.3334C59.5421 25.1204 60.3851 25.5975 61.2808 25.5367C61.843 25.524 62.3761 25.2913 62.7591 24.8914C63.1421 24.4915 63.3426 23.9582 63.315 23.4127C63.3128 22.5406 62.762 21.7584 61.926 21.4403C61.0899 21.1221 60.1387 21.3327 59.5271 21.9712C58.9155 22.6098 58.768 23.5465 59.1551 24.3334ZM51.258 24.3411C51.6478 25.1275 52.4932 25.6023 53.3894 25.538H53.3809C53.9431 25.5253 54.4762 25.2926 54.8592 24.8927C55.2422 24.4928 55.4427 23.9596 55.4151 23.414C55.4127 22.5412 54.8607 21.7587 54.0237 21.4413C53.1866 21.1239 52.2348 21.3361 51.6241 21.9764C51.0134 22.6167 50.8682 23.5547 51.258 24.3411ZM79.1393 19.9138C80.5445 19.964 81.772 20.8516 82.2245 22.1448L82.4025 22.5152L77.5797 24.4498C77.882 25.1185 78.5745 25.5396 79.3258 25.5118C80.0512 25.5136 80.7241 25.1446 81.0972 24.5404L82.3262 25.3636C81.6572 26.3363 80.5301 26.9176 79.3258 26.9113C78.3685 26.925 77.4466 26.5599 76.772 25.9C76.0974 25.2402 75.7281 24.3422 75.7489 23.4126C75.6904 22.5041 76.0215 21.6127 76.6638 20.9499C77.3061 20.287 78.2022 19.912 79.1393 19.9138ZM77.3087 23.3148C77.274 22.8004 77.4539 22.2941 77.8079 21.91C78.1619 21.526 78.6601 21.2964 79.1903 21.2732C79.7492 21.2374 80.2761 21.529 80.5295 22.0141L77.3087 23.3148ZM74.9778 26.7072H73.3928V16.4167H74.9778V26.7072ZM70.7988 20.6975H70.7395C70.2563 20.1729 69.5656 19.8734 68.8409 19.8743C66.917 19.9649 65.405 21.5063 65.405 23.3772C65.405 25.248 66.917 26.7894 68.8409 26.8801C69.568 26.8919 70.2631 26.5905 70.7395 26.0568H70.7903V26.559C70.7903 27.9009 70.0529 28.6171 68.8663 28.6171C68.058 28.5987 67.3413 28.1075 67.0525 27.374L65.6709 27.9338C66.2029 29.1907 67.4671 30.0083 68.8663 30.0001C70.7225 30.0001 72.2567 28.9382 72.2567 26.3532V20.1213H70.7988V20.6975ZM68.9823 25.5377L68.985 25.5379H68.9765L68.9823 25.5377ZM70.4106 24.8775C70.0468 25.2773 69.531 25.5156 68.9823 25.5377C67.8503 25.4395 66.9824 24.5181 66.9824 23.4139C66.9824 22.3089 67.8516 21.387 68.985 21.29C69.5326 21.3173 70.0457 21.5582 70.4079 21.958C70.7702 22.3579 70.9508 22.8829 70.909 23.4139C70.9557 23.9474 70.7756 24.4763 70.4106 24.8775ZM89.6496 16.4148H85.8608V26.7053H87.4458V22.8032H89.658C90.8893 22.8891 92.0669 22.2998 92.7095 21.276C93.3521 20.2523 93.3521 18.9657 92.7095 17.9419C92.0669 16.9182 90.8893 16.3289 89.658 16.4148H89.6496ZM87.4373 21.3553H89.6495L89.6834 21.38C90.6875 21.38 91.5014 20.5894 91.5014 19.6141C91.5014 18.6389 90.6875 17.8483 89.6834 17.8483H87.4373V21.3553ZM99.4222 19.8732C98.243 19.8047 97.1343 20.4223 96.5998 21.4456L98.0068 22.0136C98.2902 21.5062 98.8553 21.2092 99.4477 21.2562C99.8541 21.2101 100.263 21.3245 100.581 21.5738C100.9 21.823 101.102 22.1861 101.143 22.5816V22.6887C100.634 22.4269 100.066 22.2911 99.49 22.2935C97.9729 22.2935 96.4387 23.1167 96.4387 24.6068C96.469 25.2487 96.7652 25.8514 97.2601 26.2778C97.755 26.7042 98.4065 26.9181 99.0662 26.8707C99.8793 26.9274 100.659 26.5486 101.1 25.8828H101.151V26.7061H102.677V22.7463C102.677 20.9434 101.27 19.8979 99.4646 19.8979L99.4222 19.8732ZM97.9899 24.6405C97.9899 25.258 98.7103 25.5132 99.2273 25.5132L99.2697 25.5379C100.225 25.5153 101.016 24.8129 101.126 23.8914C100.686 23.653 100.189 23.5336 99.685 23.5456C98.8883 23.5456 97.9899 23.8173 97.9899 24.6405ZM108.237 20.1209L106.423 24.5829H106.372L104.491 20.1209H102.796L105.618 26.3611L104.008 29.8269H105.66L110 20.1209H108.237ZM95.5742 26.7072H93.9893V16.4167H95.5742V26.7072Z" fill="white"/>
<path d="M66.9197 13H66.3197V10.472C66.3197 10.1467 66.245 9.91737 66.0957 9.78404C65.9463 9.64537 65.733 9.57604 65.4557 9.57604C65.2317 9.57604 65.013 9.63471 64.7997 9.75204C64.5917 9.86937 64.429 10.0107 64.3117 10.176V13H63.7117V9.13604H64.3117V9.69604C64.461 9.52004 64.661 9.36804 64.9117 9.24004C65.1623 9.10671 65.421 9.04004 65.6877 9.04004C66.509 9.04004 66.9197 9.45604 66.9197 10.288V13Z" fill="white"/>
<path d="M62.2057 12.512C61.859 12.9014 61.3977 13.096 60.8217 13.096C60.2457 13.096 59.7817 12.9014 59.4297 12.512C59.083 12.1227 58.9097 11.64 58.9097 11.064C58.9097 10.488 59.083 10.008 59.4297 9.62404C59.7817 9.23471 60.2457 9.04004 60.8217 9.04004C61.3977 9.04004 61.859 9.23471 62.2057 9.62404C62.5577 10.008 62.7337 10.488 62.7337 11.064C62.7337 11.64 62.5577 12.1227 62.2057 12.512ZM59.8777 12.128C60.1123 12.416 60.427 12.56 60.8217 12.56C61.2163 12.56 61.5283 12.416 61.7577 12.128C61.987 11.8347 62.1017 11.48 62.1017 11.064C62.1017 10.648 61.987 10.296 61.7577 10.008C61.5283 9.72004 61.2163 9.57604 60.8217 9.57604C60.427 9.57604 60.1123 9.72271 59.8777 10.016C59.6483 10.304 59.5337 10.6534 59.5337 11.064C59.5337 11.48 59.6483 11.8347 59.8777 12.128Z" fill="white"/>
<path d="M55.6957 13.0961C55.413 13.0961 55.1997 13.0187 55.0557 12.8641C54.9117 12.7094 54.8397 12.4854 54.8397 12.1921V9.66408H54.1997V9.13608H54.8397V8.08008H55.4397V9.13608H56.2237V9.66408H55.4397V12.0641C55.4397 12.2134 55.4717 12.3334 55.5357 12.4241C55.605 12.5147 55.7037 12.5601 55.8317 12.5601C56.0077 12.5601 56.1437 12.5067 56.2397 12.4001L56.4157 12.8481C56.2397 13.0134 55.9997 13.0961 55.6957 13.0961Z" fill="white"/>
<path d="M53.2186 8.58437C53.1119 8.58437 53.0186 8.54703 52.9386 8.47237C52.8586 8.39237 52.8186 8.29637 52.8186 8.18437C52.8186 8.07237 52.8586 7.97637 52.9386 7.89637C53.0186 7.81637 53.1119 7.77637 53.2186 7.77637C53.3306 7.77637 53.4266 7.81637 53.5066 7.89637C53.5866 7.97637 53.6266 8.07237 53.6266 8.18437C53.6266 8.29637 53.5866 8.39237 53.5066 8.47237C53.4266 8.54703 53.3306 8.58437 53.2186 8.58437ZM53.5226 13.0004H52.9226V9.13637H53.5226V13.0004Z" fill="white"/>
<path d="M49.4848 13.0961C49.2021 13.0961 48.9888 13.0187 48.8448 12.8641C48.7008 12.7094 48.6288 12.4854 48.6288 12.1921V9.66408H47.9888V9.13608H48.6288V8.08008H49.2288V9.13608H50.0128V9.66408H49.2288V12.0641C49.2288 12.2134 49.2608 12.3334 49.3248 12.4241C49.3941 12.5147 49.4928 12.5601 49.6208 12.5601C49.7968 12.5601 49.9328 12.5067 50.0288 12.4001L50.2048 12.8481C50.0288 13.0134 49.7888 13.0961 49.4848 13.0961Z" fill="white"/>
<path d="M45.7449 13.096C45.1689 13.096 44.6969 12.9094 44.3289 12.536C43.9609 12.1574 43.7769 11.6667 43.7769 11.064C43.7769 10.4987 43.9582 10.0214 44.3209 9.63204C44.6835 9.23737 45.1369 9.04004 45.6809 9.04004C46.2515 9.04004 46.7022 9.23737 47.0329 9.63204C47.3689 10.0214 47.5369 10.5147 47.5369 11.112V11.264H44.4089C44.4355 11.6427 44.5742 11.96 44.8249 12.216C45.0755 12.472 45.4009 12.6 45.8009 12.6C46.2809 12.6 46.6782 12.4374 46.9929 12.112L47.2809 12.504C46.8862 12.8987 46.3742 13.096 45.7449 13.096ZM46.9449 10.824C46.9395 10.4934 46.8275 10.1974 46.6089 9.93604C46.3902 9.66937 46.0782 9.53604 45.6729 9.53604C45.2889 9.53604 44.9849 9.66671 44.7609 9.92804C44.5422 10.1894 44.4249 10.488 44.4089 10.824H46.9449Z" fill="white"/>
<path d="M40.8497 13.1042C40.0764 13.1042 39.4257 12.8482 38.8977 12.3362C38.3697 11.8188 38.1057 11.1522 38.1057 10.3362C38.1057 9.52017 38.3697 8.85617 38.8977 8.34417C39.4257 7.83217 40.0764 7.57617 40.8497 7.57617C41.6924 7.57617 42.383 7.90951 42.9217 8.57617L42.3937 8.90417C42.223 8.68017 41.999 8.50151 41.7217 8.36817C41.4497 8.23484 41.159 8.16817 40.8497 8.16817C40.263 8.16817 39.7724 8.37351 39.3777 8.78417C38.9884 9.18951 38.7937 9.70684 38.7937 10.3362C38.7937 10.9655 38.9884 11.4855 39.3777 11.8962C39.7724 12.3068 40.263 12.5122 40.8497 12.5122C41.143 12.5122 41.415 12.4562 41.6657 12.3442C41.9217 12.2268 42.127 12.0908 42.2817 11.9362V10.8482H40.4497V10.2562H42.9457V12.1842C42.3964 12.7975 41.6977 13.1042 40.8497 13.1042Z" fill="white"/>
<path fill-rule="evenodd" clip-rule="evenodd" d="M65.6878 9.13994C65.4386 9.13994 65.1959 9.20207 64.9588 9.32823L64.9573 9.329C64.7159 9.45228 64.5272 9.59666 64.3881 9.76064L64.2118 9.96836V9.23594H63.8118V12.8999H64.2118V10.1441L64.2303 10.1181C64.3575 9.93877 64.5321 9.78814 64.7507 9.66484L64.7516 9.66432C64.9784 9.53959 65.2135 9.47594 65.4558 9.47594C65.7487 9.47594 65.9896 9.54922 66.1631 9.71C66.3434 9.87145 66.4198 10.1359 66.4198 10.4719V12.8999H66.8198V10.2879C66.8198 9.88703 66.7209 9.60478 66.5407 9.42219C66.3606 9.23984 66.0827 9.13994 65.6878 9.13994ZM64.8656 9.15127C65.1295 9.01101 65.404 8.93994 65.6878 8.93994C66.1142 8.93994 66.4523 9.04804 66.683 9.28169C66.9134 9.5151 67.0198 9.85685 67.0198 10.2879V13.0999H66.2198V10.4719C66.2198 10.1578 66.1471 9.96381 66.0292 9.85854L66.0278 9.85723C65.9027 9.74114 65.7171 9.67594 65.4558 9.67594C65.2503 9.67594 65.0482 9.72954 64.8485 9.83931C64.6623 9.94439 64.5177 10.0678 64.4118 10.2086V13.0999H63.6118V9.03594H64.4118V9.45301C64.5409 9.34018 64.6924 9.23975 64.8656 9.15127Z" fill="white"/>
<path fill-rule="evenodd" clip-rule="evenodd" d="M60.8218 9.13994C60.271 9.13994 59.8351 9.32482 59.504 9.69101C59.1759 10.0545 59.0098 10.5097 59.0098 11.0639C59.0098 11.618 59.1758 12.0761 59.5042 12.4451C59.8352 12.8111 60.2711 12.9959 60.8218 12.9959C61.3726 12.9959 61.8056 12.8111 62.1311 12.4454L62.1316 12.4449C62.4653 12.0758 62.6338 11.6178 62.6338 11.0639C62.6338 10.5101 62.4654 10.0551 62.1321 9.69151L62.1311 9.69044C61.8056 9.3248 61.3726 9.13994 60.8218 9.13994ZM59.3556 9.55688C59.7286 9.14439 60.2206 8.93994 60.8218 8.93994C61.4227 8.93994 61.9123 9.14424 62.28 9.5569C62.2802 9.55708 62.2803 9.55726 62.2805 9.55744L62.2058 9.62391L62.2795 9.55637C62.2797 9.55655 62.2799 9.55672 62.28 9.5569C62.6504 9.96126 62.8338 10.466 62.8338 11.0639C62.8338 11.662 62.6504 12.1692 62.2802 12.5787C62.2803 12.5786 62.2804 12.5785 62.2805 12.5784L62.2058 12.5119L62.28 12.579C62.2801 12.5789 62.2802 12.5788 62.2802 12.5787C61.9125 12.9916 61.4229 13.1959 60.8218 13.1959C60.2206 13.1959 59.7286 12.9915 59.3556 12.579L59.3551 12.5784C58.9904 12.1688 58.8098 11.6617 58.8098 11.0639C58.8098 10.4662 58.9904 9.96144 59.3556 9.55693L59.3556 9.55688ZM59.7997 9.95347C60.0545 9.63506 60.3985 9.47594 60.8218 9.47594C61.2444 9.47594 61.5862 9.63192 61.836 9.94565C62.0813 10.2536 62.2018 10.6284 62.2018 11.0639C62.2018 11.4995 62.0813 11.8766 61.8366 12.1895L61.836 12.1902C61.5862 12.504 61.2444 12.6599 60.8218 12.6599C60.3992 12.6599 60.0553 12.504 59.8003 12.1911L59.799 12.1895L59.799 12.1895C59.5543 11.8766 59.4338 11.4995 59.4338 11.0639C59.4338 10.6334 59.5545 10.2614 59.7996 9.95365L59.7997 9.95347ZM59.956 10.0783C59.7424 10.3466 59.6338 10.6732 59.6338 11.0639C59.6338 11.46 59.7424 11.792 59.956 12.0655C60.1703 12.3281 60.4554 12.4599 60.8218 12.4599C61.1884 12.4599 61.4705 12.328 61.6793 12.066C61.8931 11.7924 62.0018 11.4602 62.0018 11.0639C62.0018 10.6675 61.893 10.3382 61.6796 10.0702C61.4707 9.80797 61.1885 9.67594 60.8218 9.67594C60.4558 9.67594 60.1706 9.81013 59.956 10.0783Z" fill="white"/>
<path fill-rule="evenodd" clip-rule="evenodd" d="M54.7399 7.97998H55.5399V9.03598H56.3239V9.76398H55.5399V12.064C55.5399 12.1986 55.5685 12.296 55.6164 12.3647C55.6643 12.4265 55.7315 12.46 55.8319 12.46C55.9864 12.46 56.0927 12.414 56.1655 12.3331L56.2738 12.2128L56.5337 12.8745L56.4843 12.9209C56.2853 13.1078 56.0184 13.196 55.6959 13.196C55.3952 13.196 55.1514 13.1133 54.9827 12.9321C54.8157 12.7528 54.7399 12.5007 54.7399 12.192V9.76398H54.0999V9.03598H54.7399V7.97998ZM54.9399 8.17998V9.23598H54.2999V9.56398H54.9399V12.192C54.9399 12.4699 55.008 12.6658 55.129 12.7958C55.2484 12.924 55.4312 12.996 55.6959 12.996C55.9511 12.996 56.1485 12.9343 56.2968 12.8185L56.1974 12.5653C56.0948 12.6297 55.9712 12.66 55.8319 12.66C55.677 12.66 55.5472 12.6034 55.4564 12.4847L55.4541 12.4817C55.3747 12.3692 55.3399 12.2269 55.3399 12.064V9.56398H56.1239V9.23598H55.3399V8.17998H54.9399Z" fill="white"/>
<path fill-rule="evenodd" clip-rule="evenodd" d="M53.2188 7.87627C53.1403 7.87627 53.072 7.90447 53.0095 7.96698C52.948 8.02844 52.9187 8.09909 52.9187 8.18427C52.9187 8.26888 52.9476 8.33916 53.0082 8.40034C53.0699 8.45741 53.1387 8.48427 53.2188 8.48427C53.3055 8.48427 53.3765 8.45649 53.4373 8.40033C53.4979 8.33916 53.5268 8.26888 53.5268 8.18427C53.5268 8.09909 53.4975 8.02844 53.436 7.96698C53.3746 7.90552 53.3039 7.87627 53.2188 7.87627ZM52.868 7.82556C52.9655 7.72807 53.0838 7.67627 53.2188 7.67627C53.3576 7.67627 53.4789 7.72702 53.5775 7.82556C53.676 7.9241 53.7267 8.04545 53.7267 8.18427C53.7267 8.32309 53.676 8.44444 53.5775 8.54298L53.575 8.54542C53.476 8.63781 53.3554 8.68427 53.2188 8.68427C53.086 8.68427 52.9685 8.63683 52.8705 8.54538L52.868 8.54302C52.7695 8.44448 52.7188 8.32309 52.7188 8.18427C52.7188 8.04545 52.7695 7.9241 52.868 7.82556ZM52.8228 9.03627H53.6228V13.1003H52.8228V9.03627ZM53.0227 9.23627V12.9003H53.4228V9.23627H53.0227Z" fill="white"/>
<path fill-rule="evenodd" clip-rule="evenodd" d="M48.5289 7.97998H49.3289V9.03598H50.1129V9.76398H49.3289V12.064C49.3289 12.1986 49.3576 12.296 49.4055 12.3647C49.4534 12.4265 49.5205 12.46 49.6209 12.46C49.7755 12.46 49.8817 12.414 49.9546 12.3331L50.0628 12.2128L50.3228 12.8745L50.2734 12.9209C50.0744 13.1078 49.8075 13.196 49.4849 13.196C49.1843 13.196 48.9404 13.1133 48.7717 12.9321C48.6048 12.7528 48.5289 12.5007 48.5289 12.192V9.76398H47.8889V9.03598H48.5289V7.97998ZM48.7289 8.17998V9.23598H48.0889V9.56398H48.7289V12.192C48.7289 12.4699 48.7971 12.6658 48.9181 12.7958C49.0374 12.924 49.2202 12.996 49.4849 12.996C49.7402 12.996 49.9376 12.9343 50.0859 12.8184L49.9864 12.5653C49.8839 12.6297 49.7603 12.66 49.6209 12.66C49.4661 12.66 49.3362 12.6034 49.2455 12.4847L49.2432 12.4817C49.1638 12.3692 49.1289 12.2269 49.1289 12.064V9.56398H49.9129V9.23598H49.1289V8.17998H48.7289Z" fill="white"/>
<path fill-rule="evenodd" clip-rule="evenodd" d="M45.681 9.13994C45.1645 9.13994 44.738 9.32589 44.3946 9.6996C44.0504 10.0692 43.877 10.5222 43.877 11.0639C43.877 11.6444 44.0534 12.1087 44.4005 12.466C44.7477 12.8181 45.193 12.9959 45.745 12.9959C46.3186 12.9959 46.7838 12.8267 47.1485 12.4924L46.9803 12.2635C46.6597 12.5548 46.2646 12.6999 45.801 12.6999C45.3776 12.6999 45.0253 12.5634 44.7536 12.2859C44.4852 12.0119 44.3375 11.6718 44.3092 11.271L44.3017 11.1639H47.437V11.1119C47.437 10.5345 47.2751 10.0656 46.9573 9.69728L46.9563 9.69617C46.6469 9.32682 46.2257 9.13994 45.681 9.13994ZM44.2476 9.56403C44.6295 9.14857 45.1096 8.93994 45.681 8.93994C46.2774 8.93994 46.7574 9.14756 47.1092 9.56718C47.463 9.97746 47.637 10.495 47.637 11.1119V11.3639H44.5197C44.5613 11.6729 44.6872 11.9322 44.8965 12.146C45.126 12.3804 45.4245 12.4999 45.801 12.4999C46.2557 12.4999 46.6265 12.347 46.9211 12.0424L47.0035 11.9573L47.4124 12.5139L47.3517 12.5747C46.9358 12.9905 46.3972 13.1959 45.745 13.1959C45.1451 13.1959 44.6465 13.0005 44.2578 12.6061C43.869 12.2061 43.677 11.6887 43.677 11.0639C43.677 10.4752 43.8667 9.97306 44.2476 9.56403ZM44.6851 9.86286C44.9304 9.57664 45.2636 9.43594 45.673 9.43594C46.1023 9.43594 46.4449 9.57841 46.686 9.87215C46.9187 10.1504 47.0393 10.4682 47.045 10.8223L47.0466 10.9239H44.3041L44.3091 10.8192C44.3262 10.4611 44.4518 10.1416 44.6843 9.86377L44.6851 9.86286ZM44.8373 9.99257C44.6558 10.2097 44.5496 10.4528 44.5175 10.7239H46.8397C46.8157 10.4577 46.7139 10.2172 46.5323 10.0001C46.3361 9.76078 46.0542 9.63594 45.673 9.63594C45.3146 9.63594 45.0399 9.75642 44.8373 9.99257Z" fill="white"/>
<path fill-rule="evenodd" clip-rule="evenodd" d="M40.8499 7.67607C40.101 7.67607 39.4758 7.92296 38.9675 8.41586C38.4611 8.90687 38.2059 9.54387 38.2059 10.3361C38.2059 11.1282 38.4611 11.768 38.9676 12.2644C39.4759 12.7572 40.1011 13.0041 40.8499 13.0041C41.6573 13.0041 42.3201 12.7182 42.8459 12.1455V10.3561H40.5499V10.7481H42.3819V11.9775L42.3526 12.0068C42.1875 12.1719 41.9714 12.314 41.7075 12.435C41.4432 12.5531 41.1563 12.6121 40.8499 12.6121C40.2369 12.6121 39.7199 12.3963 39.3058 11.9654C38.8968 11.534 38.6939 10.9879 38.6939 10.3361C38.6939 9.68428 38.8963 9.14105 39.3057 8.7148C39.7199 8.28386 40.2369 8.06807 40.8499 8.06807C41.174 8.06807 41.4796 8.13803 41.7655 8.2781C42.026 8.4034 42.2436 8.56801 42.4163 8.77239L42.7712 8.55193C42.2626 7.96652 41.6243 7.67607 40.8499 7.67607ZM38.8282 8.27228C39.3759 7.74119 40.052 7.47607 40.8499 7.47607C41.7233 7.47607 42.4424 7.82353 42.9996 8.51323L43.0708 8.60128L42.3694 9.03699L42.3143 8.96468C42.1541 8.75438 41.943 8.58534 41.6785 8.4582C41.4205 8.33173 41.1443 8.26807 40.8499 8.26807C40.2895 8.26807 39.8252 8.46297 39.45 8.85335C39.0807 9.23777 38.8939 9.72921 38.8939 10.3361C38.8939 10.9428 39.0807 11.4371 39.4502 11.827C39.8253 12.2173 40.2896 12.4121 40.8499 12.4121C41.13 12.4121 41.3878 12.3587 41.6247 12.253C41.8562 12.1468 42.041 12.0266 42.1819 11.8938V10.9481H40.3499V10.1561H43.0459V12.2223L43.0203 12.2508C42.4514 12.886 41.7253 13.2041 40.8499 13.2041C40.052 13.2041 39.3759 12.939 38.8282 12.4079C38.279 11.8697 38.0059 11.1759 38.0059 10.3361C38.0059 9.49628 38.2786 8.80527 38.8282 8.27228Z" fill="white"/>
<path d="M10.4068 7.34696C10.1244 7.68135 9.98185 8.10943 10.0082 8.54393V27.4561C9.98185 27.8906 10.1244 28.3187 10.4068 28.6531L10.4675 28.7129L21.204 18.1283V17.8803L10.4675 7.28711L10.4068 7.34696Z" fill="url(#paint0_linear_2794_1265)"/>
<path d="M24.7574 21.66L21.2046 18.1289V17.8809L24.7574 14.3413L24.8354 14.3841L29.0902 16.7695C30.3033 17.4449 30.3033 18.5564 29.0902 19.2404L24.8528 21.6172L24.7574 21.66Z" fill="url(#paint1_linear_2794_1265)"/>
<path d="M24.8612 21.608L21.2044 18L10.4072 28.6531C10.9174 29.0955 11.6745 29.1171 12.2096 28.7044L24.8699 21.608" fill="url(#paint2_linear_2794_1265)"/>
<path d="M24.8614 14.392L12.2011 7.29563C11.6659 6.88291 10.9088 6.90446 10.3987 7.34693L21.2045 18L24.8614 14.392Z" fill="url(#paint3_linear_2794_1265)"/>
<path opacity="0.2" d="M24.7573 21.5312L12.201 28.5848C11.6872 28.9639 10.9817 28.9639 10.4679 28.5848L10.4072 28.6447L10.4679 28.7045C10.9807 29.0864 11.6881 29.0864 12.201 28.7045L24.8612 21.6082L24.7573 21.5312Z" fill="black"/>
<path opacity="0.12" d="M10.4068 28.5344C10.1244 28.2 9.98185 27.7719 10.0082 27.3374V27.4656C9.98185 27.9002 10.1244 28.3282 10.4068 28.6626L10.4675 28.6028L10.4068 28.5344Z" fill="black"/>
<path opacity="0.12" d="M29.0901 19.1115L24.7573 21.5311L24.8353 21.608L29.0901 19.2312C29.5815 19.0034 29.912 18.5339 29.9566 18C29.8579 18.4829 29.5378 18.8934 29.0901 19.1115Z" fill="black"/>
<path opacity="0.25" d="M12.201 7.41546L29.0901 16.8887C29.5378 17.1067 29.8578 17.5172 29.9566 18.0001C29.9119 17.4663 29.5815 16.9967 29.0901 16.769L12.201 7.29577C10.9879 6.62033 10 7.18462 10 8.55259V8.68084C10.026 7.30432 10.9965 6.74003 12.201 7.41546Z" fill="white"/>
<defs>
<linearGradient id="paint0_linear_2794_1265" x1="16.5015" y1="-5.56239" x2="-0.65946" y2="-0.936655" gradientUnits="userSpaceOnUse">
<stop stop-color="#00A0FF"/>
<stop offset="0.01" stop-color="#00A1FF"/>
<stop offset="0.26" stop-color="#00BEFF"/>
<stop offset="0.51" stop-color="#00D2FF"/>
<stop offset="0.76" stop-color="#00DFFF"/>
<stop offset="1" stop-color="#00E3FF"/>
</linearGradient>
<linearGradient id="paint1_linear_2794_1265" x1="30.676" y1="9.27955" x2="9.71416" y2="9.27955" gradientUnits="userSpaceOnUse">
<stop stop-color="#FFE000"/>
<stop offset="0.41" stop-color="#FFBD00"/>
<stop offset="0.78" stop-color="#FFA500"/>
<stop offset="1" stop-color="#FF9C00"/>
</linearGradient>
<linearGradient id="paint2_linear_2794_1265" x1="10.09" y1="12.4662" x2="-3.44727" y2="35.5451" gradientUnits="userSpaceOnUse">
<stop stop-color="#FF3A44"/>
<stop offset="1" stop-color="#C31162"/>
</linearGradient>
<linearGradient id="paint3_linear_2794_1265" x1="1.97585" y1="4.40238" x2="8.01821" y2="14.7082" gradientUnits="userSpaceOnUse">
<stop stop-color="#32A071"/>
<stop offset="0.07" stop-color="#2DA771"/>
<stop offset="0.48" stop-color="#15CF74"/>
<stop offset="0.8" stop-color="#06E775"/>
<stop offset="1" stop-color="#00F076"/>
</linearGradient>
</defs>
</svg>
