<?xml version="1.0" encoding="UTF-8"?>
<svg id="Layer_1" xmlns="http://www.w3.org/2000/svg" version="1.1" viewBox="0 0 122.8 90.2">
  <!-- Generator: Adobe Illustrator 29.4.0, SVG Export Plug-In . SVG Version: 2.1.0 Build 152)  -->
  <defs>
    <style>
      .st0 {
        fill: #37b6ff;
      }
    </style>
  </defs>
  <rect class="st0" x="47.2" y="3.4" width="70.6" height="83.5" rx="19.4" ry="19.4"/>
  <path d="M91.3,41.4c0,2.5-1.5,4.6-3.6,5.5-3.2,19-19.8,33.5-39.8,33.5S11.2,65.8,8.1,46.6c-1.8-1-3-3-3-5.2,0-3.3,2.7-6,6-6s6,2.7,6,6-.8,3.4-2,4.5c2.7,15.6,16.4,27.6,32.8,27.6s30.3-12.1,32.9-28c-1-1.1-1.6-2.5-1.6-4.1,0-3.3,2.7-6,6-6s6,2.7,6,6Z"/>
  <circle cx="25.7" cy="16.4" r="8.1"/>
  <circle cx="69.5" cy="16.3" r="8.1"/>
</svg>