<?xml version="1.0" encoding="UTF-8"?>
<svg id="Layer_1" data-name="Layer 1" xmlns="http://www.w3.org/2000/svg" viewBox="0 0 101.87 115.12">
  <defs>
    <style>
      .cls-1 {
        fill: #2d9cd3;
      }
    </style>
  </defs>
  <g>
    <path d="M90.92,13.25h-3.78v8.25c0,3.99-3.24,7.23-7.23,7.23s-7.23-3.24-7.23-7.23v-8.25H29.19v8.25c0,3.99-3.24,7.23-7.23,7.23s-7.23-3.24-7.23-7.23v-8.25h-3.78C4.91,13.25,0,18.16,0,24.2v79.98c0,6.04,4.91,10.95,10.95,10.95h79.98c6.04,0,10.95-4.91,10.95-10.95V24.2c0-6.04-4.91-10.95-10.95-10.95ZM96.81,104.17c0,3.25-2.64,5.89-5.89,5.89H10.95c-3.25,0-5.89-2.64-5.89-5.89v-62.87h91.76v62.87Z"/>
    <rect x="12.83" y="48.26" width="22.37" height="15.04" rx="1.41" ry="1.41"/>
    <rect x="39.75" y="48.26" width="22.37" height="15.04" rx="1.41" ry="1.41"/>
    <rect x="66.67" y="48.26" width="22.37" height="15.04" rx="1.41" ry="1.41"/>
    <rect x="12.83" y="68.23" width="22.37" height="15.04" rx="1.41" ry="1.41"/>
    <rect x="39.75" y="68.23" width="22.37" height="15.04" rx="1.41" ry="1.41"/>
    <rect x="66.67" y="68.23" width="22.37" height="15.04" rx="1.41" ry="1.41"/>
    <rect x="12.83" y="88.2" width="22.37" height="15.04" rx="1.41" ry="1.41"/>
    <rect x="39.75" y="88.2" width="22.37" height="15.04" rx="1.41" ry="1.41"/>
    <rect x="66.67" y="88.2" width="22.37" height="15.04" rx="1.41" ry="1.41"/>
    <rect x="17.25" y="0" width="9.41" height="26.21" rx="4.7" ry="4.7"/>
    <rect x="75.21" y="0" width="9.41" height="26.21" rx="4.7" ry="4.7"/>
  </g>
  <g>
    <path class="cls-1" d="M90.92,13.25h-3.78v8.25c0,3.99-3.24,7.23-7.23,7.23s-7.23-3.24-7.23-7.23v-8.25H29.19v8.25c0,3.99-3.24,7.23-7.23,7.23s-7.23-3.24-7.23-7.23v-8.25h-3.78C4.91,13.25,0,18.16,0,24.2v79.98c0,6.04,4.91,10.95,10.95,10.95h79.98c6.04,0,10.95-4.91,10.95-10.95V24.2c0-6.04-4.91-10.95-10.95-10.95ZM96.81,104.17c0,3.25-2.64,5.89-5.89,5.89H10.95c-3.25,0-5.89-2.64-5.89-5.89v-62.87h91.76v62.87Z"/>
    <rect class="cls-1" x="12.83" y="48.26" width="22.37" height="15.04" rx="1.41" ry="1.41"/>
    <rect class="cls-1" x="39.75" y="48.26" width="22.37" height="15.04" rx="1.41" ry="1.41"/>
    <rect class="cls-1" x="66.67" y="48.26" width="22.37" height="15.04" rx="1.41" ry="1.41"/>
    <rect class="cls-1" x="12.83" y="68.23" width="22.37" height="15.04" rx="1.41" ry="1.41"/>
    <rect class="cls-1" x="39.75" y="68.23" width="22.37" height="15.04" rx="1.41" ry="1.41"/>
    <rect class="cls-1" x="66.67" y="68.23" width="22.37" height="15.04" rx="1.41" ry="1.41"/>
    <rect class="cls-1" x="12.83" y="88.2" width="22.37" height="15.04" rx="1.41" ry="1.41"/>
    <rect class="cls-1" x="39.75" y="88.2" width="22.37" height="15.04" rx="1.41" ry="1.41"/>
    <rect class="cls-1" x="66.67" y="88.2" width="22.37" height="15.04" rx="1.41" ry="1.41"/>
    <rect class="cls-1" x="17.25" y="0" width="9.41" height="26.21" rx="4.7" ry="4.7"/>
    <rect class="cls-1" x="75.21" y="0" width="9.41" height="26.21" rx="4.7" ry="4.7"/>
  </g>
</svg>