<?xml version="1.0" encoding="UTF-8"?>
<svg id="Layer_1" data-name="Layer 1" xmlns="http://www.w3.org/2000/svg" xmlns:xlink="http://www.w3.org/1999/xlink" viewBox="0 0 4.19 4.19">
  <defs>
    <style>
      .cls-1 {
        fill: #fff;
        fill-rule: evenodd;
      }

      .cls-2 {
        fill: #34d;
      }

      .cls-3 {
        fill: url(#linear-gradient);
      }
    </style>
    <linearGradient id="linear-gradient" x1=".53" y1=".75" x2="3.56" y2="3.35" gradientUnits="userSpaceOnUse">
      <stop offset=".13" stop-color="#38b6ff"/>
      <stop offset=".8" stop-color="#0098d9"/>
    </linearGradient>
  </defs>
  <path class="cls-3" d="M4.19,2.09c0,1.16-.94,2.1-2.1,2.1S0,3.25,0,2.09.94,0,2.09,0s2.1.94,2.1,2.09Z"/>
  <g>
    <g>
      <path class="cls-2" d="M2.1.88c-.78,0-1.41.54-1.41,1.21,0,.35.17.66.44.88,0,.11-.04.21-.1.29.12,0,.25-.05.34-.14.21.11.47.18.74.18.78,0,1.41-.54,1.41-1.21s-.63-1.21-1.41-1.21ZM2.97,2.68c-.05.06-.13.09-.2.09h-1.35c-.08,0-.15-.03-.2-.09-.15-.16-.23-.37-.23-.59s.09-.43.23-.59c.05-.06.13-.09.2-.09h1.35c.08,0,.15.03.21.09.15.16.23.37.23.59s-.09.43-.23.59Z"/>
      <path class="cls-2" d="M.62,2.1c0,.17.04.33.11.48-.19-.06-.33-.19-.33-.48,0-.28.14-.42.33-.48-.07.15-.11.31-.11.48Z"/>
      <path class="cls-2" d="M.56,1.26v.36s-.09.07-.12.12c0,0,0,0,0,0v-.48s.03-.06.06-.06.06.03.06.06Z"/>
      <path class="cls-2" d="M3.57,2.1c0,.17-.04.33-.11.48.19-.06.33-.19.33-.48,0-.28-.14-.42-.33-.48.07.15.11.31.11.48Z"/>
      <path class="cls-2" d="M3.63,1.26v.36s.09.07.12.12c0,0,0,0,0,0v-.48s-.03-.06-.06-.06-.06.03-.06.06Z"/>
      <g>
        <g>
          <path class="cls-2" d="M1.8,2.06c-.04.06-.1,0-.22,0s-.18.06-.22,0c-.04-.06.07-.21.22-.21s.26.15.22.21Z"/>
          <path class="cls-2" d="M2.84,2.06c-.04.06-.1,0-.22,0s-.18.06-.22,0c-.04-.06.07-.21.22-.21s.26.15.22.21Z"/>
        </g>
        <path class="cls-2" d="M2.1,2.34c-.09,0-.14-.07-.15-.07-.01-.02-.01-.04,0-.05.02-.01.04-.01.05,0,0,0,.04.04.09.04s.09-.04.09-.04c.01-.02.04-.02.05,0,.02.01.02.04,0,.05,0,0-.06.07-.15.07Z"/>
      </g>
    </g>
    <g>
      <path class="cls-1" d="M2.1.88c-.78,0-1.41.54-1.41,1.21,0,.35.17.66.44.88,0,.11-.04.21-.1.29.12,0,.25-.05.34-.14.21.11.47.18.74.18.78,0,1.41-.54,1.41-1.21s-.63-1.21-1.41-1.21ZM2.97,2.68c-.05.06-.13.09-.2.09h-1.35c-.08,0-.15-.03-.2-.09-.15-.16-.23-.37-.23-.59s.09-.43.23-.59c.05-.06.13-.09.2-.09h1.35c.08,0,.15.03.21.09.15.16.23.37.23.59s-.09.43-.23.59Z"/>
      <path class="cls-1" d="M.62,2.1c0,.17.04.33.11.48-.19-.06-.33-.19-.33-.48,0-.28.14-.42.33-.48-.07.15-.11.31-.11.48Z"/>
      <path class="cls-1" d="M.56,1.26v.36s-.09.07-.12.12c0,0,0,0,0,0v-.48s.03-.06.06-.06.06.03.06.06Z"/>
      <path class="cls-1" d="M3.57,2.1c0,.17-.04.33-.11.48.19-.06.33-.19.33-.48,0-.28-.14-.42-.33-.48.07.15.11.31.11.48Z"/>
      <path class="cls-1" d="M3.63,1.26v.36s.09.07.12.12c0,0,0,0,0,0v-.48s-.03-.06-.06-.06-.06.03-.06.06Z"/>
      <g>
        <g>
          <path class="cls-1" d="M1.8,2.06c-.04.06-.1,0-.22,0s-.18.06-.22,0c-.04-.06.07-.21.22-.21s.26.15.22.21Z"/>
          <path class="cls-1" d="M2.84,2.06c-.04.06-.1,0-.22,0s-.18.06-.22,0c-.04-.06.07-.21.22-.21s.26.15.22.21Z"/>
        </g>
        <path class="cls-1" d="M2.1,2.34c-.09,0-.14-.07-.15-.07-.01-.02-.01-.04,0-.05.02-.01.04-.01.05,0,0,0,.04.04.09.04s.09-.04.09-.04c.01-.02.04-.02.05,0,.02.01.02.04,0,.05,0,0-.06.07-.15.07Z"/>
      </g>
    </g>
  </g>
</svg>