<svg width="25" height="20" viewBox="0 0 25 20" fill="none" xmlns="http://www.w3.org/2000/svg">
<path d="M4.89842 19.0881V17.8234C4.89842 17.3386 4.60657 17.0225 4.10627 17.0225C3.85612 17.0225 3.58512 17.1068 3.39751 17.3808C3.25159 17.1489 3.04313 17.0225 2.73044 17.0225C2.52198 17.0225 2.31352 17.0857 2.14675 17.3176V17.0646H1.70898V19.0881H2.14675V17.971C2.14675 17.6126 2.33436 17.444 2.62621 17.444C2.91805 17.444 3.06397 17.6337 3.06397 17.971V19.0881H3.50174V17.971C3.50174 17.6126 3.7102 17.444 3.98119 17.444C4.27304 17.444 4.41896 17.6337 4.41896 17.971V19.0881H4.89842ZM11.3815 17.0646H10.6728V16.4534H10.235V17.0646H9.83891V17.4651H10.235V18.3925C10.235 18.8562 10.4226 19.1302 10.9229 19.1302C11.1105 19.1302 11.319 19.067 11.4649 18.9827L11.3398 18.6033C11.2147 18.6876 11.0688 18.7087 10.9646 18.7087C10.7561 18.7087 10.6728 18.5822 10.6728 18.3714V17.4651H11.3815V17.0646ZM15.0921 17.0225C14.8419 17.0225 14.6752 17.1489 14.5709 17.3176V17.0646H14.1332V19.0881H14.5709V17.9499C14.5709 17.6126 14.7169 17.4229 14.9879 17.4229C15.0712 17.4229 15.1755 17.444 15.2589 17.4651L15.3839 17.0435C15.3006 17.0225 15.1755 17.0225 15.0921 17.0225ZM9.48453 17.2332C9.27607 17.0857 8.98423 17.0225 8.67154 17.0225C8.17124 17.0225 7.8377 17.2754 7.8377 17.6759C7.8377 18.0131 8.08785 18.2028 8.52562 18.2661L8.73408 18.2871C8.96338 18.3293 9.08846 18.3925 9.08846 18.4979C9.08846 18.6455 8.92169 18.7508 8.62985 18.7508C8.338 18.7508 8.1087 18.6455 7.96278 18.5401L7.75432 18.8773C7.98362 19.0459 8.29631 19.1302 8.609 19.1302C9.19269 19.1302 9.52622 18.8562 9.52622 18.4768C9.52622 18.1185 9.25523 17.9288 8.83831 17.8656L8.62985 17.8445C8.44223 17.8234 8.29631 17.7813 8.29631 17.6548C8.29631 17.5073 8.44223 17.4229 8.67154 17.4229C8.92169 17.4229 9.17184 17.5283 9.29692 17.5916L9.48453 17.2332ZM21.1166 17.0225C20.8664 17.0225 20.6997 17.1489 20.5954 17.3176V17.0646H20.1577V19.0881H20.5954V17.9499C20.5954 17.6126 20.7414 17.4229 21.0124 17.4229C21.0957 17.4229 21.2 17.444 21.2833 17.4651L21.4084 17.0435C21.325 17.0225 21.2 17.0225 21.1166 17.0225ZM15.5299 18.0764C15.5299 18.6876 15.9468 19.1302 16.593 19.1302C16.8849 19.1302 17.0933 19.067 17.3018 18.8984L17.0933 18.5401C16.9265 18.6665 16.7598 18.7298 16.5722 18.7298C16.2178 18.7298 15.9676 18.4768 15.9676 18.0764C15.9676 17.697 16.2178 17.444 16.5722 17.4229C16.7598 17.4229 16.9265 17.4862 17.0933 17.6126L17.3018 17.2543C17.0933 17.0857 16.8849 17.0225 16.593 17.0225C15.9468 17.0225 15.5299 17.4651 15.5299 18.0764ZM19.574 18.0764V17.0646H19.1362V17.3176C18.9903 17.1279 18.7818 17.0225 18.5108 17.0225C17.948 17.0225 17.5102 17.4651 17.5102 18.0764C17.5102 18.6876 17.948 19.1302 18.5108 19.1302C18.8027 19.1302 19.0111 19.0249 19.1362 18.8352V19.0881H19.574V18.0764ZM17.9688 18.0764C17.9688 17.718 18.1981 17.4229 18.5734 17.4229C18.9278 17.4229 19.1779 17.697 19.1779 18.0764C19.1779 18.4347 18.9278 18.7298 18.5734 18.7298C18.1981 18.7087 17.9688 18.4347 17.9688 18.0764ZM12.7365 17.0225C12.1528 17.0225 11.7359 17.444 11.7359 18.0764C11.7359 18.7087 12.1528 19.1302 12.7573 19.1302C13.0492 19.1302 13.341 19.0459 13.5703 18.8562L13.3619 18.5401C13.1951 18.6665 12.9867 18.7508 12.7782 18.7508C12.5072 18.7508 12.2362 18.6244 12.1737 18.2661H13.6537C13.6537 18.2028 13.6537 18.1607 13.6537 18.0974C13.6746 17.444 13.2993 17.0225 12.7365 17.0225ZM12.7365 17.4019C13.0075 17.4019 13.1951 17.5705 13.2368 17.8867H12.1945C12.2362 17.6126 12.4238 17.4019 12.7365 17.4019ZM23.5973 18.0764V16.2637H23.1803V17.3176C23.0344 17.1279 22.826 17.0225 22.555 17.0225C21.9921 17.0225 21.5543 17.4651 21.5543 18.0764C21.5543 18.6876 21.9921 19.1302 22.555 19.1302C22.8468 19.1302 23.0553 19.0249 23.1803 18.8352V19.0881H23.6181V18.0764H23.5973ZM24.3269 18.793C24.3477 18.793 24.3894 18.793 24.4102 18.8141C24.4311 18.8141 24.4519 18.8352 24.4728 18.8562C24.4936 18.8773 24.5145 18.8984 24.5145 18.9195C24.5145 18.9405 24.5353 18.9616 24.5353 19.0038C24.5353 19.0249 24.5353 19.067 24.5145 19.0881C24.4936 19.1092 24.4936 19.1302 24.4728 19.1513C24.4519 19.1724 24.4311 19.1935 24.4102 19.1935C24.3894 19.2146 24.3686 19.2146 24.3269 19.2146C24.306 19.2146 24.2643 19.2146 24.2435 19.1935C24.2226 19.1724 24.2018 19.1724 24.1809 19.1513C24.1601 19.1302 24.1392 19.1092 24.1392 19.0881C24.1184 19.067 24.1184 19.0459 24.1184 19.0038C24.1184 18.9827 24.1184 18.9405 24.1392 18.9195C24.1601 18.8984 24.1601 18.8773 24.1809 18.8562C24.2018 18.8352 24.2226 18.8141 24.2435 18.8141C24.2643 18.793 24.306 18.793 24.3269 18.793ZM24.3269 19.1513C24.3477 19.1513 24.3686 19.1513 24.3894 19.1302C24.4102 19.1302 24.4311 19.1092 24.4311 19.0881C24.4519 19.067 24.4519 19.067 24.4728 19.0459C24.4728 19.0249 24.4936 19.0038 24.4936 18.9827C24.4936 18.9616 24.4936 18.9405 24.4728 18.9195C24.4728 18.8984 24.4519 18.8773 24.4311 18.8773C24.4102 18.8562 24.4102 18.8562 24.3894 18.8352C24.3686 18.8352 24.3477 18.8141 24.3269 18.8141C24.306 18.8141 24.2852 18.8141 24.2643 18.8352C24.2435 18.8352 24.2226 18.8562 24.2226 18.8773C24.2018 18.8984 24.2018 18.8984 24.1809 18.9195C24.1809 18.9405 24.1601 18.9616 24.1601 18.9827C24.1601 19.0038 24.1601 19.0249 24.1809 19.0459C24.1809 19.067 24.2018 19.0881 24.2226 19.0881C24.2435 19.1092 24.2435 19.1092 24.2643 19.1302C24.2852 19.1302 24.306 19.1513 24.3269 19.1513ZM24.3477 18.8984C24.3686 18.8984 24.3894 18.8984 24.4102 18.9195C24.4311 18.9405 24.4311 18.9405 24.4311 18.9616C24.4311 18.9827 24.4311 18.9827 24.4102 19.0038C24.4102 19.0038 24.3894 19.0249 24.3686 19.0249L24.4311 19.0881H24.3894L24.3269 19.0249H24.306V19.0881H24.2643V18.8984H24.3477ZM24.2852 18.9195V18.9616H24.3269H24.3477C24.3477 18.9616 24.3477 18.9616 24.3477 18.9405V18.9195H24.3269H24.2852ZM21.9921 18.0764C21.9921 17.718 22.2214 17.4229 22.5966 17.4229C22.951 17.4229 23.2012 17.697 23.2012 18.0764C23.2012 18.4347 22.951 18.7298 22.5966 18.7298C22.2214 18.7087 21.9921 18.4347 21.9921 18.0764ZM7.35824 18.0764V17.0646H6.92048V17.3176C6.77455 17.1279 6.5661 17.0225 6.2951 17.0225C5.73226 17.0225 5.29449 17.4651 5.29449 18.0764C5.29449 18.6876 5.73226 19.1302 6.2951 19.1302C6.58694 19.1302 6.7954 19.0249 6.92048 18.8352V19.0881H7.35824V18.0764ZM5.73226 18.0764C5.73226 17.718 5.96156 17.4229 6.33679 17.4229C6.69117 17.4229 6.94132 17.697 6.94132 18.0764C6.94132 18.4347 6.69117 18.7298 6.33679 18.7298C5.96156 18.7087 5.73226 18.4347 5.73226 18.0764Z" fill="#231F20"/>
<path d="M15.9239 1.72168H9.35742V13.6517H15.9239V1.72168Z" fill="#FF5F00"/>
<path d="M9.77597 7.68662C9.77597 5.26268 10.9017 3.11275 12.6319 1.72162C11.3603 0.709888 9.75513 0.0986328 8.00406 0.0986328C3.85571 0.0986328 0.499512 3.49215 0.499512 7.68662C0.499512 11.8811 3.85571 15.2746 8.00406 15.2746C9.75513 15.2746 11.3603 14.6634 12.6319 13.6516C10.8808 12.2605 9.77597 10.0895 9.77597 7.68662Z" fill="#EB001B"/>
<path d="M24.7642 7.68662C24.7642 11.8811 21.408 15.2746 17.2596 15.2746C15.5086 15.2746 13.9034 14.6634 12.6318 13.6516C14.3829 12.2605 15.4877 10.1106 15.4877 7.68662C15.4877 5.26268 14.3621 3.11275 12.6318 1.72162C13.9034 0.709888 15.5086 0.0986328 17.2596 0.0986328C21.408 0.0986328 24.7642 3.49215 24.7642 7.68662Z" fill="#F79E1B"/>
<path d="M24.0541 12.3879V12.1349H24.1584V12.0928H23.9082V12.1349H24.0124V12.3879H24.0541ZM24.5336 12.3879V12.0928H24.4502L24.3668 12.3035L24.2834 12.0928H24.2209V12.3879H24.2834V12.156L24.3668 12.3457H24.4294L24.5127 12.156V12.3879H24.5336Z" fill="#F79E1B"/>
</svg>
