<?xml version="1.0" encoding="UTF-8"?>
<svg id="Layer_1" data-name="Layer 1" xmlns="http://www.w3.org/2000/svg" viewBox="0 0 122.38 122.38">
  <defs>
    <style>
      .cls-1 {
        fill: #2d9cd3;
      }

      .cls-2 {
        fill: #3e4349;
      }
    </style>
  </defs>
  <g>
    <path class="cls-2" d="M61.19,0C27.39,0,0,27.39,0,61.19s27.39,61.19,61.19,61.19,61.19-27.39,61.19-61.19S94.99,0,61.19,0ZM65.81,112.93v-4.11c0-2.55-2.07-4.62-4.62-4.62s-4.62,2.07-4.62,4.62v4.11c-25.02-2.22-44.98-22.23-47.13-47.26h3.98c2.55,0,4.62-2.07,4.62-4.62s-2.07-4.62-4.62-4.62h-3.96C11.74,31.53,31.65,11.66,56.57,9.45v3.82c0,2.55,2.06,4.62,4.62,4.62s4.62-2.07,4.62-4.62v-3.82c24.92,2.21,44.83,22.08,47.11,46.98h-3.96c-2.55,0-4.62,2.07-4.62,4.62s2.07,4.62,4.62,4.62h3.98c-2.15,25.04-22.12,45.05-47.13,47.26Z"/>
    <path class="cls-2" d="M88.7,31.38l-27.36,28.66c-.05,0-.1,0-.16,0-.34,0-.68.04-1,.1l-22.89-17.3c-1.52-1.14-3.69-.85-4.84.69-1.15,1.52-.86,3.7.68,4.85l22.89,17.29c.22,2.66,2.45,4.76,5.17,4.76,2.87,0,5.2-2.33,5.2-5.2,0-.14,0-.27-.02-.41l27.35-28.67c1.32-1.39,1.27-3.57-.12-4.9-1.38-1.33-3.57-1.26-4.9.12Z"/>
  </g>
  <g>
    <path class="cls-1" d="M61.19,0C27.39,0,0,27.39,0,61.19s27.39,61.19,61.19,61.19,61.19-27.39,61.19-61.19S94.99,0,61.19,0ZM65.81,112.93v-4.11c0-2.55-2.07-4.62-4.62-4.62s-4.62,2.07-4.62,4.62v4.11c-25.02-2.22-44.98-22.23-47.13-47.26h3.98c2.55,0,4.62-2.07,4.62-4.62s-2.07-4.62-4.62-4.62h-3.96C11.74,31.53,31.65,11.66,56.57,9.45v3.82c0,2.55,2.06,4.62,4.62,4.62s4.62-2.07,4.62-4.62v-3.82c24.92,2.21,44.83,22.08,47.11,46.98h-3.96c-2.55,0-4.62,2.07-4.62,4.62s2.07,4.62,4.62,4.62h3.98c-2.15,25.04-22.12,45.05-47.13,47.26Z"/>
    <path class="cls-1" d="M88.7,31.38l-27.36,28.66c-.05,0-.1,0-.16,0-.34,0-.68.04-1,.1l-22.89-17.3c-1.52-1.14-3.69-.85-4.84.69-1.15,1.52-.86,3.7.68,4.85l22.89,17.29c.22,2.66,2.45,4.76,5.17,4.76,2.87,0,5.2-2.33,5.2-5.2,0-.14,0-.27-.02-.41l27.35-28.67c1.32-1.39,1.27-3.57-.12-4.9-1.38-1.33-3.57-1.26-4.9.12Z"/>
  </g>
</svg>