<?xml version="1.0" encoding="UTF-8"?>
<svg id="OBJECTS" xmlns="http://www.w3.org/2000/svg" viewBox="0 0 150 150">
  <defs>
    <style>
      .cls-1 {
        opacity: .47;
      }

      .cls-1, .cls-2, .cls-3 {
        fill: #fff;
      }

      .cls-4 {
        opacity: .81;
      }

      .cls-5 {
        fill: #6d6cd4;
      }

      .cls-2 {
        opacity: .12;
      }

      .cls-6 {
        fill: #ecf1f7;
      }

      .cls-7 {
        fill: #4c65ba;
        opacity: .36;
      }

      .cls-8 {
        fill: #3e479b;
      }

      .cls-9 {
        fill: none;
      }

      .cls-10 {
        opacity: .84;
      }

      .cls-11, .cls-12 {
        opacity: .66;
      }

      .cls-13 {
        fill: #c5d9ff;
      }

      .cls-14 {
        fill: #f28393;
      }

      .cls-15 {
        fill: #f7a9b4;
        opacity: .39;
      }

      .cls-16 {
        opacity: .35;
      }

      .cls-17 {
        fill: #599af2;
      }

      .cls-12, .cls-18 {
        fill: #aaa0a0;
      }
    </style>
  </defs>
  <g>
    <g>
      <g class="cls-11">
        <g>
          <path class="cls-18" d="M110.75,40.45h-2.39c-1,0-1.82-.82-1.82-1.82v-2.69c0-.5-.32-.96-.79-1.13-.28-.1-.56-.22-.84-.35-.46-.22-1.02-.12-1.37.24l-1.9,1.9c-.34.34-.8.53-1.29.53s-.94-.19-1.29-.53l-1.69-1.69c-.71-.71-.71-1.86,0-2.57l1.9-1.9c.36-.36.45-.91.24-1.37-.13-.27-.24-.56-.35-.84-.17-.47-.63-.79-1.13-.79h-2.69c-1,0-1.82-.82-1.82-1.82v-2.39c0-1,.82-1.82,1.82-1.82h2.69c.5,0,.96-.32,1.13-.79.1-.28.22-.56.35-.84.22-.47.12-1.02-.24-1.37l-1.9-1.9c-.71-.71-.71-1.86,0-2.57l1.69-1.69c.71-.71,1.86-.71,2.57,0l1.9,1.9c.36.36.91.45,1.37.24.27-.13.56-.24.84-.35.47-.17.79-.63.79-1.13v-2.69c0-1,.82-1.82,1.82-1.82h2.39c1,0,1.82.82,1.82,1.82v2.69c0,.5.32.96.79,1.13.28.1.56.22.84.35.47.22,1.02.12,1.37-.24l1.9-1.9c.71-.71,1.86-.71,2.57,0l1.69,1.69c.71.71.71,1.86,0,2.57l-1.9,1.9c-.36.36-.45.91-.24,1.37.13.27.24.55.35.84.17.47.63.79,1.13.79h2.69c1,0,1.82.82,1.82,1.82v2.39c0,1-.82,1.82-1.82,1.82h-2.69c-.5,0-.96.32-1.13.79-.1.28-.22.56-.35.84-.22.47-.12,1.02.24,1.38l1.9,1.9c.71.71.71,1.86,0,2.57l-1.69,1.69c-.34.34-.8.53-1.29.53s-.94-.19-1.29-.53l-1.9-1.9c-.36-.36-.91-.45-1.37-.24-.27.13-.55.24-.84.35-.47.17-.79.63-.79,1.13v2.69c0,1-.82,1.82-1.82,1.82ZM104.39,33.74c.26,0,.53.06.78.17.26.12.52.23.79.33.71.26,1.19.95,1.19,1.71v2.69c0,.67.54,1.21,1.21,1.21h2.39c.67,0,1.21-.54,1.21-1.21v-2.69c0-.76.48-1.45,1.19-1.71.27-.1.53-.21.79-.33.7-.32,1.53-.18,2.07.36l1.9,1.9c.47.47,1.24.47,1.71,0l1.69-1.69c.47-.47.47-1.24,0-1.71l-1.9-1.9c-.54-.54-.68-1.37-.36-2.07.12-.26.23-.52.33-.79.26-.71.95-1.19,1.71-1.19h2.69c.67,0,1.21-.54,1.21-1.21v-2.39c0-.67-.54-1.21-1.21-1.21h-2.69c-.76,0-1.45-.48-1.71-1.19-.1-.27-.21-.53-.33-.79-.32-.7-.18-1.53.36-2.06l1.9-1.9c.47-.47.47-1.24,0-1.71l-1.69-1.69c-.47-.47-1.24-.47-1.71,0l-1.9,1.9c-.54.54-1.37.68-2.07.36-.26-.12-.52-.23-.79-.33-.71-.26-1.19-.95-1.19-1.71v-2.69c0-.67-.54-1.21-1.21-1.21h-2.39c-.67,0-1.21.54-1.21,1.21v2.69c0,.76-.48,1.45-1.19,1.71-.26.1-.53.21-.79.33-.7.32-1.53.18-2.06-.36l-1.9-1.9c-.47-.47-1.24-.47-1.71,0l-1.69,1.69c-.47.47-.47,1.24,0,1.71l1.9,1.9c.54.54.68,1.37.36,2.07-.12.26-.23.52-.33.79-.26.71-.95,1.19-1.71,1.19h-2.69c-.67,0-1.21.54-1.21,1.21v2.39c0,.67.54,1.21,1.21,1.21h2.69c.76,0,1.45.48,1.71,1.19.1.26.21.53.33.79.32.7.18,1.53-.36,2.06l-1.9,1.9c-.47.47-.47,1.24,0,1.71l1.69,1.69c.47.47,1.24.47,1.71,0l1.9-1.9c.35-.35.81-.53,1.29-.53ZM109.55,32.83c-4.63,0-8.4-3.77-8.4-8.4s3.77-8.4,8.4-8.4,8.4,3.77,8.4,8.4-3.77,8.4-8.4,8.4ZM109.55,16.63c-4.3,0-7.79,3.5-7.79,7.79s3.5,7.79,7.79,7.79,7.79-3.5,7.79-7.79-3.5-7.79-7.79-7.79Z"/>
          <g class="cls-10">
            <path class="cls-18" d="M106.3,84.14h-2.98c-.7,0-1.33-.44-1.58-1.1-.11-.31-.24-.61-.37-.9-.3-.64-.17-1.41.33-1.91l2.11-2.11c.66-.66.66-1.72,0-2.37l-1.87-1.87c-.66-.66-1.72-.66-2.37,0l-2.11,2.11c-.5.5-1.26.63-1.91.33-.29-.14-.59-.26-.9-.37-.66-.24-1.1-.87-1.1-1.58v-2.98c0-.93-.75-1.68-1.68-1.68h-2.65c-.93,0-1.68.75-1.68,1.68v2.98c0,.7-.44,1.33-1.1,1.58-.31.11-.61.24-.9.37-.64.3-1.41.17-1.91-.33l-2.11-2.11c-.66-.66-1.72-.66-2.37,0l-1.87,1.87c-.66.66-.66,1.72,0,2.37l2.11,2.11c.5.5.63,1.26.33,1.91-.14.29-.26.59-.37.9-.24.66-.87,1.1-1.58,1.1h-2.98c-.93,0-1.68.75-1.68,1.68v2.65c0,.93.75,1.68,1.68,1.68h2.98c.7,0,1.33.44,1.58,1.1.11.31.24.61.37.9.3.64.17,1.41-.33,1.91l-2.11,2.11c-.66.66-.66,1.72,0,2.37l1.87,1.87c.66.66,1.72.66,2.37,0l2.11-2.11c.5-.5,1.26-.63,1.91-.33.29.14.59.26.9.37.66.24,1.1.87,1.1,1.58v2.98c0,.93.75,1.68,1.68,1.68h2.65c.93,0,1.68-.75,1.68-1.68v-2.98c0-.7.44-1.33,1.1-1.58.31-.11.61-.24.9-.37.64-.3,1.41-.17,1.91.33l2.11,2.11c.66.66,1.72.66,2.37,0l1.87-1.87c.66-.66.66-1.72,0-2.37l-2.11-2.11c-.5-.5-.63-1.26-.33-1.91.14-.29.26-.59.37-.9.24-.66.87-1.1,1.58-1.1h2.98c.93,0,1.68-.75,1.68-1.68v-2.65c0-.93-.75-1.68-1.68-1.68ZM90.53,96.13c-4.96,0-8.98-4.02-8.98-8.98s4.02-8.98,8.98-8.98,8.98,4.02,8.98,8.98-4.02,8.98-8.98,8.98Z"/>
          </g>
          <path class="cls-18" d="M59.67,102h-2.01c-.87,0-1.58-.71-1.58-1.58v-2.26c0-.4-.25-.77-.63-.91-.24-.09-.47-.18-.71-.29-.37-.17-.81-.1-1.1.19l-1.6,1.6c-.3.3-.69.46-1.12.46s-.82-.16-1.12-.46l-1.42-1.42c-.3-.3-.46-.69-.46-1.12s.16-.82.46-1.12l1.6-1.6c.29-.29.36-.73.19-1.1-.11-.23-.2-.47-.29-.71-.14-.38-.5-.63-.91-.63h-2.26c-.87,0-1.58-.71-1.58-1.58v-2.01c0-.87.71-1.58,1.58-1.58h2.26c.4,0,.77-.25.91-.63.09-.24.19-.48.29-.71.17-.37.1-.81-.19-1.1l-1.6-1.6c-.3-.3-.46-.69-.46-1.12s.16-.82.46-1.12l1.42-1.42c.62-.61,1.62-.61,2.23,0l1.6,1.6c.28.28.73.36,1.1.19.23-.11.47-.2.71-.29.38-.14.63-.5.63-.91v-2.26c0-.87.71-1.58,1.58-1.58h2.01c.87,0,1.58.71,1.58,1.58v2.26c0,.4.25.77.63.91.24.09.48.19.71.29.37.17.81.1,1.1-.19l1.6-1.6c.62-.61,1.62-.61,2.23,0l1.42,1.42c.3.3.46.69.46,1.12s-.16.82-.46,1.12l-1.6,1.6c-.28.28-.36.73-.19,1.1.11.23.2.47.29.71.14.38.5.63.91.63h2.26c.87,0,1.58.71,1.58,1.58v2.01c0,.87-.71,1.58-1.58,1.58h-2.26c-.4,0-.77.26-.91.63-.09.24-.19.48-.29.71-.17.37-.1.81.19,1.1l1.6,1.6c.3.3.46.69.46,1.12s-.16.82-.46,1.12l-1.42,1.42c-.3.3-.69.46-1.12.46s-.82-.16-1.12-.46l-1.6-1.6c-.29-.28-.73-.36-1.1-.19-.23.11-.47.21-.71.29-.38.14-.63.5-.63.91v2.26c0,.87-.71,1.58-1.58,1.58ZM54.33,96.26c.23,0,.46.05.67.15.22.1.44.19.66.27.62.23,1.04.82,1.04,1.48v2.26c0,.53.43.97.97.97h2.01c.53,0,.97-.43.97-.97v-2.26c0-.66.42-1.25,1.04-1.48.22-.08.44-.17.66-.27.61-.28,1.32-.15,1.79.31l1.6,1.6c.36.36,1,.36,1.36,0l1.42-1.42c.18-.18.28-.42.28-.68s-.1-.5-.28-.68l-1.6-1.6c-.47-.47-.59-1.19-.31-1.79.1-.21.19-.44.27-.66.23-.62.82-1.04,1.48-1.04h2.26c.53,0,.97-.43.97-.97v-2.01c0-.53-.43-.97-.97-.97h-2.26c-.66,0-1.25-.42-1.48-1.04-.08-.22-.17-.45-.27-.66-.28-.6-.16-1.32.31-1.79l1.6-1.6c.18-.18.28-.42.28-.68s-.1-.5-.28-.68l-1.42-1.42c-.38-.38-.99-.38-1.36,0l-1.6,1.6c-.47.47-1.19.59-1.79.31-.21-.1-.43-.19-.66-.27-.62-.23-1.04-.82-1.04-1.48v-2.26c0-.53-.43-.97-.97-.97h-2.01c-.53,0-.97.43-.97.97v2.26c0,.66-.42,1.25-1.04,1.48-.22.08-.45.17-.66.27-.6.28-1.32.16-1.79-.31l-1.6-1.6c-.38-.38-.99-.38-1.37,0l-1.42,1.42c-.18.18-.28.42-.28.68s.1.5.28.68l1.6,1.6c.47.47.59,1.19.31,1.79-.1.21-.19.44-.27.66-.23.62-.82,1.04-1.48,1.04h-2.26c-.53,0-.97.43-.97.97v2.01c0,.53.43.97.97.97h2.26c.66,0,1.25.42,1.48,1.04.08.22.17.44.27.66.28.6.16,1.32-.31,1.79l-1.6,1.6c-.18.18-.28.42-.28.68s.1.5.28.68l1.42,1.42c.36.36,1,.37,1.37,0l1.6-1.6c.3-.3.71-.46,1.12-.46ZM58.66,95.59c-3.92,0-7.11-3.19-7.11-7.11s3.19-7.11,7.11-7.11,7.11,3.19,7.11,7.11-3.19,7.11-7.11,7.11ZM58.66,81.99c-3.58,0-6.5,2.91-6.5,6.5s2.91,6.5,6.5,6.5,6.5-2.91,6.5-6.5-2.91-6.5-6.5-6.5Z"/>
        </g>
      </g>
      <g>
        <g class="cls-4">
          <path class="cls-18" d="M124.62,68.79h-3.99c-.17,0-.31-.14-.31-.31s.14-.31.31-.31h3.99c.17,0,.31.14.31.31s-.14.31-.31.31Z"/>
          <path class="cls-18" d="M124.62,75.37h-3.99c-.17,0-.31-.14-.31-.31s.14-.31.31-.31h3.99c.17,0,.31.14.31.31s-.14.31-.31.31Z"/>
          <g>
            <g>
              <path class="cls-18" d="M127.44,82.01h-24.27c-.46,0-.83-.37-.83-.83v-20.29c0-.46.37-.83.83-.83h24.27c.46,0,.83.37.83.83v20.29c0,.46-.37.83-.83.83ZM103.17,60.67c-.12,0-.22.1-.22.22v20.29c0,.12.1.22.22.22h24.27c.12,0,.22-.1.22-.22v-20.29c0-.12-.1-.22-.22-.22h-24.27Z"/>
              <path class="cls-12" d="M127.44,82.01h-24.27c-.46,0-.83-.37-.83-.83v-20.29c0-.46.37-.83.83-.83h24.27c.46,0,.83.37.83.83v20.29c0,.46-.37.83-.83.83ZM103.17,60.67c-.12,0-.22.1-.22.22v20.29c0,.12.1.22.22.22h24.27c.12,0,.22-.1.22-.22v-20.29c0-.12-.1-.22-.22-.22h-24.27Z"/>
            </g>
            <path class="cls-18" d="M124.62,65.6h-19.02c-.17,0-.31-.14-.31-.31s.14-.31.31-.31h19.02c.17,0,.31.14.31.31s-.14.31-.31.31Z"/>
            <path class="cls-18" d="M124.62,71.98h-19.02c-.17,0-.31-.14-.31-.31s.14-.31.31-.31h19.02c.17,0,.31.14.31.31s-.14.31-.31.31Z"/>
            <path class="cls-18" d="M115.85,68.79h-10.26c-.17,0-.31-.14-.31-.31s.14-.31.31-.31h10.26c.17,0,.31.14.31.31s-.14.31-.31.31Z"/>
            <path class="cls-18" d="M115.85,75.37h-10.26c-.17,0-.31-.14-.31-.31s.14-.31.31-.31h10.26c.17,0,.31.14.31.31s-.14.31-.31.31Z"/>
            <path class="cls-18" d="M112.51,78.41h-6.92c-.17,0-.31-.14-.31-.31s.14-.31.31-.31h6.92c.17,0,.31.14.31.31s-.14.31-.31.31Z"/>
          </g>
        </g>
        <g class="cls-4">
          <path class="cls-18" d="M46.96,35.3h-4.53c-.17,0-.31-.14-.31-.31s.14-.31.31-.31h4.53c.17,0,.31.14.31.31s-.14.31-.31.31Z"/>
          <path class="cls-18" d="M46.96,42.77h-4.53c-.17,0-.31-.14-.31-.31s.14-.31.31-.31h4.53c.17,0,.31.14.31.31s-.14.31-.31.31Z"/>
          <g>
            <g>
              <path class="cls-18" d="M50.23,50.3h-27.68c-.46,0-.83-.37-.83-.83v-23.16c0-.46.37-.83.83-.83h27.68c.46,0,.83.37.83.83v23.16c0,.46-.37.83-.83.83ZM22.56,26.09c-.12,0-.22.1-.22.22v23.16c0,.12.1.22.22.22h27.68c.12,0,.22-.1.22-.22v-23.16c0-.12-.1-.22-.22-.22h-27.68Z"/>
              <path class="cls-12" d="M50.23,50.3h-27.68c-.46,0-.83-.37-.83-.83v-23.16c0-.46.37-.83.83-.83h27.68c.46,0,.83.37.83.83v23.16c0,.46-.37.83-.83.83ZM22.56,26.09c-.12,0-.22.1-.22.22v23.16c0,.12.1.22.22.22h27.68c.12,0,.22-.1.22-.22v-23.16c0-.12-.1-.22-.22-.22h-27.68Z"/>
            </g>
            <path class="cls-18" d="M46.96,31.68h-21.58c-.17,0-.31-.14-.31-.31s.14-.31.31-.31h21.58c.17,0,.31.14.31.31s-.14.31-.31.31Z"/>
            <path class="cls-18" d="M46.96,38.92h-21.58c-.17,0-.31-.14-.31-.31s.14-.31.31-.31h21.58c.17,0,.31.14.31.31s-.14.31-.31.31Z"/>
            <path class="cls-18" d="M37.02,35.3h-11.63c-.17,0-.31-.14-.31-.31s.14-.31.31-.31h11.63c.17,0,.31.14.31.31s-.14.31-.31.31Z"/>
            <path class="cls-18" d="M37.02,42.77h-11.63c-.17,0-.31-.14-.31-.31s.14-.31.31-.31h11.63c.17,0,.31.14.31.31s-.14.31-.31.31Z"/>
            <path class="cls-18" d="M33.23,46.22h-7.85c-.17,0-.31-.14-.31-.31s.14-.31.31-.31h7.85c.17,0,.31.14.31.31s-.14.31-.31.31Z"/>
          </g>
        </g>
      </g>
    </g>
    <g>
      <g>
        <g>
          <path class="cls-8" d="M138.65,44.01h-13.76c-.62,0-1.16.45-1.37,1.12l-.46,1.51c-.2.67-.75,1.12-1.37,1.12h-19.7c-.8,0-1.45.75-1.45,1.67h0v22.31c0,.92.65,1.67,1.45,1.67h36.65c.85,0,1.54-.75,1.54-1.67v-26.06c0-.92-.69-1.67-1.54-1.67Z"/>
          <path class="cls-5" d="M124.59,48l.49-1.51c.22-.67.8-1.12,1.46-1.12h12.12c.85,0,1.54.75,1.54,1.67v26.06c0,.92-.69,1.67-1.54,1.67h-36.55c-.85,0-1.54-.75-1.54-1.67v-22.31c0-.92.69-1.67,1.54-1.67h21.03c.66,0,1.24-.45,1.46-1.12Z"/>
          <path class="cls-2" d="M125.49,49.53l.46-1.43c.2-.63.75-1.06,1.37-1.06h11.42c.8,0,1.45.7,1.45,1.57v24.56c0,.87-.65,1.57-1.45,1.57h-34.45c-.8,0-1.45-.7-1.45-1.57v-21.02c0-.87.65-1.57,1.45-1.57h19.83c.62,0,1.17-.42,1.37-1.06Z"/>
        </g>
        <path class="cls-3" d="M136.02,72.88h-9.04c-.17,0-.31-.14-.31-.31s.14-.31.31-.31h9.04c.58,0,1.06-.47,1.06-1.06v-7.17c0-.17.14-.31.31-.31s.31.14.31.31v7.17c0,.92-.75,1.67-1.67,1.67Z"/>
      </g>
      <g>
        <g>
          <path class="cls-14" d="M11.36,54.19h13.85c.62,0,1.17.4,1.37.99l.46,1.34c.2.59.75.99,1.37.99h19.83c.8,0,1.45.66,1.45,1.47h0v19.72c0,.81-.65,1.47-1.45,1.47H11.36c-.86,0-1.55-.66-1.55-1.47v-23.04c0-.81.7-1.47,1.55-1.47Z"/>
          <path class="cls-2" d="M25.51,57.72l-.49-1.34c-.22-.59-.81-.99-1.47-.99h-12.19c-.86,0-1.55.66-1.55,1.47v23.04c0,.81.7,1.47,1.55,1.47h36.79c.86,0,1.55-.66,1.55-1.47v-19.72c0-.81-.7-1.47-1.55-1.47h-21.17c-.66,0-1.25-.4-1.47-.99Z"/>
          <path class="cls-2" d="M24.61,59.07l-.46-1.26c-.2-.56-.76-.93-1.38-.93h-11.49c-.81,0-1.46.62-1.46,1.39v21.72c0,.77.66,1.39,1.46,1.39h34.68c.81,0,1.46-.62,1.46-1.39v-18.59c0-.77-.66-1.39-1.46-1.39h-19.95c-.62,0-1.18-.37-1.38-.93Z"/>
        </g>
        <path class="cls-3" d="M12.64,62.66c-.15,0-.27-.11-.27-.24v-3.34c0-.45.42-.82.93-.82h5.71c.15,0,.27.11.27.24s-.12.24-.27.24h-5.71c-.21,0-.39.15-.39.34v3.34c0,.13-.12.24-.27.24Z"/>
      </g>
    </g>
    <g>
      <g>
        <g>
          <rect class="cls-13" x="15.75" y="70.41" width="113.98" height="37.88" rx="17.67" ry="17.67"/>
          <ellipse class="cls-17" cx="72.74" cy="73.3" rx="30.1" ry="26.63"/>
        </g>
        <g>
          <rect class="cls-17" x="15.75" y="64.83" width="113.98" height="37.88" rx="17.67" ry="17.67"/>
          <ellipse class="cls-17" cx="72.74" cy="67.72" rx="30.1" ry="26.63"/>
        </g>
        <g class="cls-16">
          <g>
            <rect class="cls-6" x="15.75" y="64.83" width="113.98" height="37.88" rx="17.67" ry="17.67"/>
            <ellipse class="cls-6" cx="72.74" cy="67.72" rx="30.1" ry="26.63"/>
          </g>
        </g>
        <g>
          <g>
            <path class="cls-3" d="M65.7,71.69c-.36,0-.72-.12-.99-.37-.54-.48-.53-1.26.02-1.73l8.08-7.03,7.95,7.03c.54.48.54,1.25,0,1.73-.54.48-1.42.48-1.96,0l-6.01-5.32-6.12,5.32c-.27.23-.62.35-.97.35Z"/>
            <path class="cls-3" d="M72.74,81.43c-.76,0-1.38-.55-1.38-1.23v-15.92c0-.68.62-1.23,1.38-1.23s1.38.55,1.38,1.23v15.92c0,.68-.62,1.23-1.38,1.23Z"/>
          </g>
          <path class="cls-3" d="M85.83,88.99h-26.38c-1.89,0-3.43-1.36-3.43-3.04v-8.48c0-.68.62-1.23,1.38-1.23s1.38.55,1.38,1.23v8.48c0,.32.3.58.66.58h26.38c.48,0,.87-.34.87-.77v-8.3c0-.68.62-1.23,1.38-1.23s1.38.55,1.38,1.23v8.3c0,1.77-1.63,3.22-3.64,3.22Z"/>
        </g>
      </g>
      <g>
        <rect class="cls-7" x="25.81" y="96.14" width="40.57" height="40.57" rx="1.65" ry="1.65" transform="translate(-34.2 20.34) rotate(-18.28)"/>
        <rect class="cls-3" x="23.21" y="94.83" width="40.57" height="40.57" rx="6.36" ry="6.36" transform="translate(-33.92 19.46) rotate(-18.28)"/>
        <g>
          <rect class="cls-13" x="26.64" y="98.29" width="33.66" height="33.66" transform="translate(-33.92 19.45) rotate(-18.28)"/>
          <path class="cls-1" d="M32.5,136.65l-2.39-7.24,3.5-8.43c.48-1.17,1.76-1.76,2.97-1.39l6.47,2.01c.38.12.79-.04,1-.38l5.39-8.97c1.14-1.91,3.55-2.68,5.59-1.8l5.94,2.55.05.17,4.19,12.67-.37.12-32.33,10.68ZM30.94,129.45l2.06,6.22,31.22-10.32-3.89-11.77-5.61-2.42c-1.69-.73-3.67-.09-4.61,1.49l-5.39,8.97c-.39.65-1.17.95-1.9.72l-6.47-2.01c-.82-.25-1.69.15-2.02.94l-3.39,8.16Z"/>
          <path class="cls-1" d="M43.17,111.73c-1.74,0-3.36-1.1-3.94-2.84-.72-2.17.46-4.52,2.63-5.23,2.17-.72,4.52.46,5.23,2.63.72,2.17-.46,4.52-2.63,5.23-.43.14-.87.21-1.3.21ZM43.16,104.22c-.35,0-.7.05-1.05.17-1.76.58-2.72,2.49-2.14,4.25.58,1.76,2.49,2.72,4.25,2.14,1.76-.58,2.72-2.49,2.14-4.25-.47-1.41-1.78-2.31-3.2-2.31Z"/>
        </g>
      </g>
      <g>
        <rect class="cls-7" x="101.48" y="95.52" width="32.77" height="32.77" rx="6.36" ry="6.36"/>
        <rect class="cls-3" x="99.81" y="93.86" width="32.77" height="32.77" rx="6.36" ry="6.36"/>
        <g>
          <rect class="cls-15" x="102.59" y="96.65" width="27.19" height="27.19"/>
          <path class="cls-1" d="M130.23,124.08h-28.02v-6.29l4.84-5.61c.7-.81,1.89-.95,2.76-.33l4.46,3.18c.23.16.53.15.74-.03l6.41-5.51c1.4-1.2,3.49-1.19,4.87.04l3.94,3.49v11.06ZM103.04,123.25h26.37v-9.87l-3.66-3.25c-1.07-.95-2.7-.96-3.79-.03l-6.41,5.51c-.5.43-1.22.46-1.76.08l-4.46-3.18c-.52-.37-1.23-.29-1.65.2l-4.64,5.37v5.16Z"/>
          <path class="cls-1" d="M117.86,107.83c-1.9,0-3.44-1.54-3.44-3.44s1.54-3.44,3.44-3.44,3.44,1.55,3.44,3.44-1.55,3.44-3.44,3.44ZM117.86,101.77c-1.44,0-2.62,1.17-2.62,2.62s1.17,2.62,2.62,2.62,2.62-1.17,2.62-2.62-1.18-2.62-2.62-2.62Z"/>
        </g>
      </g>
      <g>
        <rect class="cls-7" x="60.41" y="113.21" width="26.37" height="26.37" rx="6.36" ry="6.36" transform="translate(-39.67 33.86) rotate(-20.54)"/>
        <rect class="cls-3" x="58.69" y="112.43" width="26.37" height="26.37" rx="6.36" ry="6.36" transform="translate(-39.5 33.2) rotate(-20.54)"/>
        <g>
          <rect class="cls-17" x="60.92" y="114.68" width="21.88" height="21.88" transform="translate(-39.51 33.2) rotate(-20.54)"/>
          <path class="cls-1" d="M65.13,140.22l-1.86-4.97,2.09-5.66c.33-.9,1.28-1.39,2.2-1.14l4.26,1.14c.13.04.28-.02.34-.15l3.27-5.96c.76-1.38,2.44-1.99,3.91-1.43l4.03,1.55,3.22,8.58-21.45,8.04ZM64.37,135.25l1.37,3.65,19.53-7.32-2.69-7.19-3.6-1.38c-.99-.38-2.13.03-2.64.97l-3.27,5.96c-.3.54-.92.8-1.51.65l-4.26-1.14c-.41-.11-.83.11-.97.5l-1.96,5.3Z"/>
          <path class="cls-1" d="M71.47,123.69c-1.2,0-2.33-.73-2.77-1.92-.57-1.53.2-3.23,1.73-3.8,1.52-.57,3.23.2,3.8,1.73h0c.57,1.52-.2,3.23-1.73,3.8-.34.13-.69.19-1.03.19ZM71.47,118.81c-.22,0-.45.04-.67.12-.99.37-1.5,1.48-1.13,2.48.37.99,1.48,1.5,2.48,1.13.99-.37,1.5-1.48,1.13-2.48-.29-.77-1.03-1.25-1.81-1.25Z"/>
        </g>
      </g>
    </g>
  </g>
  <rect class="cls-9" width="150" height="150"/>
</svg>