<?xml version="1.0" encoding="UTF-8"?>
<svg id="Layer_1" data-name="Layer 1" xmlns="http://www.w3.org/2000/svg" viewBox="0 0 141.43 125.61">
  <defs>
    <style>
      .cls-1 {
        fill: red;
      }
    </style>
  </defs>
  <path class="cls-1" d="M138.43,42.02c0,38.56-46.01,61.77-67.66,80.63C49.12,103.79,3.11,80.58,3.11,42.02c0-11.27,4.08-22.9,13.32-30.64C25.67,3.63,40.11.53,51.7,5.17c8.34,3.35,14.43,10.21,17.77,17.77.48,1.1.92,2.21,1.3,3.33.39-1.12.82-2.23,1.3-3.33,3.34-7.56,9.43-14.42,17.77-17.77,11.58-4.65,26.02-1.54,35.26,6.2,9.24,7.74,13.33,19.37,13.33,30.64Z"/>
  <path class="cls-1" d="M135.43,42.02c-.5,37.94-41.9,57.04-66.78,78.51h4.24c-16.81-14.5-36.45-25.5-51.24-42.33-7.73-8.79-13.97-19.37-15.28-31.19-1.62-14.61,4.21-30.05,17.68-37.11,17.52-9.18,37.1-1.15,43.82,17.16,1.04,2.84,4.74,2.84,5.79,0,5.82-15.85,21.08-24.48,37.57-19.66,15.58,4.55,23.95,18.99,24.19,34.61.06,3.86,6.06,3.87,6,0-.3-18.85-11.12-36.07-30.06-40.8-19.46-4.86-36.76,5.91-43.49,24.25h5.79C68.01,10.07,54.66-1,37.7.07S7.91,11.41,2.62,26.66c-9.99,28.8,10.37,54.22,31.29,71.4,11.29,9.27,23.68,17.16,34.74,26.71,1.3,1.12,2.94,1.13,4.24,0,26.5-22.87,68.01-42.43,68.54-82.76.05-3.86-5.95-3.86-6,0Z"/>
</svg>