<?xml version="1.0" encoding="UTF-8"?>
<svg id="Layer_1" data-name="Layer 1" xmlns="http://www.w3.org/2000/svg" viewBox="0 0 4.32 4.32">
  <g>
    <path d="M3.3.77c-.14,0-.25.11-.25.25s.11.25.25.25.25-.11.25-.25-.11-.25-.25-.25Z"/>
    <path d="M2.18,1.1c-.59,0-1.06.48-1.06,1.06s.48,1.06,1.06,1.06,1.06-.48,1.06-1.06-.48-1.06-1.06-1.06ZM2.18,2.84c-.38,0-.68-.31-.68-.68s.31-.68.68-.68.68.31.68.68-.31.68-.68.68Z"/>
    <path d="M3.02,4.32h-1.72c-.72,0-1.3-.58-1.3-1.3v-1.72C0,.58.58,0,1.3,0h1.72c.72,0,1.3.58,1.3,1.3v1.72c0,.72-.58,1.3-1.3,1.3ZM1.3.41c-.49,0-.89.4-.89.89v1.72c0,.49.4.89.89.89h1.72c.49,0,.89-.4.89-.89v-1.72c0-.49-.4-.89-.89-.89,0,0-1.72,0-1.72,0Z"/>
  </g>
  <g>
    <path d="M3.3.77c-.14,0-.25.11-.25.25s.11.25.25.25.25-.11.25-.25-.11-.25-.25-.25Z"/>
    <path d="M2.18,1.1c-.59,0-1.06.48-1.06,1.06s.48,1.06,1.06,1.06,1.06-.48,1.06-1.06-.48-1.06-1.06-1.06ZM2.18,2.84c-.38,0-.68-.31-.68-.68s.31-.68.68-.68.68.31.68.68-.31.68-.68.68Z"/>
    <path d="M3.02,4.32h-1.72c-.72,0-1.3-.58-1.3-1.3v-1.72C0,.58.58,0,1.3,0h1.72c.72,0,1.3.58,1.3,1.3v1.72c0,.72-.58,1.3-1.3,1.3ZM1.3.41c-.49,0-.89.4-.89.89v1.72c0,.49.4.89.89.89h1.72c.49,0,.89-.4.89-.89v-1.72c0-.49-.4-.89-.89-.89,0,0-1.72,0-1.72,0Z"/>
  </g>
</svg>