<?xml version="1.0" encoding="utf-8"?>
<!-- Generator: Adobe Illustrator 17.1.0, SVG Export Plug-In . SVG Version: 6.00 Build 0)  -->
<!DOCTYPE svg PUBLIC "-//W3C//DTD SVG 1.1//EN" "http://www.w3.org/Graphics/SVG/1.1/DTD/svg11.dtd">
<svg version="1.1" id="Layer_1" xmlns="http://www.w3.org/2000/svg" xmlns:xlink="http://www.w3.org/1999/xlink" x="0px" y="0px"
	 viewBox="0 0 36.3 9.7" enable-background="new 0 0 36.3 9.7" xml:space="preserve">
<g>
	<path fill-rule="evenodd" clip-rule="evenodd" fill="#187FAD" d="M28.3,1.5c-0.9,0-1.6,0.2-2.2,0.4L26,3.3c0.3-0.1,1.1-0.4,1.9-0.4
		c0.7,0,1.1,0.1,1,0.7c-2.1,0-3.6,0.4-3.9,1.8c-0.4,2.4,2.2,2.3,3.2,1.3l-0.1,0.6H30l0.8-3.8C31.1,1.9,29.7,1.5,28.3,1.5z M28.5,5.4
		c-0.1,0.5-0.5,0.7-1,0.7c-0.4,0-0.8-0.4-0.5-0.8c0.2-0.4,0.8-0.5,1.2-0.5c0.1,0,0.3,0,0.5,0C28.5,5,28.5,5.2,28.5,5.4z"/>
	<polygon fill-rule="evenodd" clip-rule="evenodd" fill="#187FAD" points="32.4,0 30.8,7.3 32.8,7.3 34.4,0 32.4,0 32.4,0 	"/>
	<path fill-rule="evenodd" clip-rule="evenodd" fill="#187FAD" d="M23.5,0.1H20l-1.6,7.2h2.1L21,4.9h1.5c1.4,0,2.6-0.9,2.9-2.4
		C25.8,0.8,24.6,0.1,23.5,0.1z M23.5,2.5c-0.1,0.5-0.7,1-1.2,1h-1l0.4-2h1C23.3,1.5,23.6,2,23.5,2.5z"/>
	<path fill-rule="evenodd" clip-rule="evenodd" fill="#195A7F" d="M9.8,1.5c-0.9,0-1.6,0.2-2.1,0.4L7.5,3.3c0.3-0.1,1.1-0.4,1.8-0.4
		c0.7,0,1.1,0.1,1,0.7C8.2,3.6,6.8,4,6.5,5.4C6.1,7.8,8.7,7.7,9.7,6.7L9.6,7.3h1.9l0.8-3.8C12.6,1.9,11.1,1.5,9.8,1.5z M10,5.4
		C9.9,5.9,9.5,6.1,9,6.1c-0.4,0-0.8-0.4-0.5-0.8C8.7,5,9.3,4.9,9.6,4.9c0.2,0,0.3,0,0.5,0C10,5,10,5.2,10,5.4z"/>
	<polygon fill-rule="evenodd" clip-rule="evenodd" fill="#195A7F" points="13.1,1.6 15,1.6 15.3,5 17.2,1.6 19.1,1.6 14.6,9.7 
		12.5,9.7 13.9,7.3 13.1,1.6 13.1,1.6 	"/>
	<path fill-rule="evenodd" clip-rule="evenodd" fill="#195A7F" d="M5.1,0.1H1.6L0,7.3h2.1l0.5-2.4h1.5C5.5,4.9,6.7,4,7,2.5
		C7.4,0.8,6.2,0.1,5.1,0.1z M5,2.5c-0.1,0.5-0.7,1-1.2,1h-1l0.4-2h1C4.9,1.5,5.2,2,5,2.5z"/>
	<path fill="#195A7F" d="M34.8,1V0.1h-0.3V0h0.8v0.1h-0.3V1H34.8z"/>
	<path fill="#195A7F" d="M35.3,1V0h0.2l0.2,0.7c0,0.1,0,0.1,0,0.1c0,0,0-0.1,0.1-0.2L36.1,0h0.2v1h-0.1V0.2L35.9,1h-0.1l-0.3-0.8V1
		H35.3z"/>
</g>
</svg>
